<?xml version="1.0" standalone="no"?>
<!DOCTYPE svg PUBLIC "-//W3C//DTD SVG 20010904//EN"
 "http://www.w3.org/TR/2001/REC-SVG-20010904/DTD/svg10.dtd">
<svg version="1.0" xmlns="http://www.w3.org/2000/svg"
 width="730.000000pt" height="495.000000pt" viewBox="0 0 730.000000 495.000000"
 preserveAspectRatio="xMidYMid meet">
<metadata>
Created by potrace 1.16, written by Peter Selinger 2001-2019
</metadata>
<g transform="translate(0.000000,495.000000) scale(0.100000,-0.100000)"
fill="#000000" stroke="none">
<path d="M4138 3756 c-6 -14 -14 -26 -18 -26 -18 0 -135 -128 -126 -138 3 -3
2 -10 -3 -16 -4 -6 -16 -34 -26 -63 -10 -29 -22 -50 -26 -47 -4 2 -5 -5 -2
-15 3 -11 1 -27 -5 -36 -8 -16 -10 -16 -15 -1 -4 9 -3 16 1 16 4 0 8 34 9 75
1 50 -2 73 -8 69 -6 -3 -9 -15 -6 -25 3 -11 1 -19 -4 -19 -5 0 -9 -6 -9 -14 0
-8 -5 -16 -11 -18 -13 -4 -16 -88 -6 -141 5 -21 12 -35 18 -32 5 4 8 -6 8 -22
-2 -36 -16 -94 -18 -70 0 9 -5 17 -11 17 -5 0 -14 15 -19 33 -8 27 -9 22 -6
-28 4 -56 4 -57 -4 -15 -5 25 -6 68 -3 95 2 28 1 47 -3 43 -10 -10 -23 -128
-13 -128 4 0 8 -12 8 -26 0 -14 10 -38 21 -52 l22 -27 -7 40 c-6 37 -5 39 9
20 9 -11 12 -26 8 -35 -4 -8 -6 -35 -6 -60 1 -36 0 -40 -7 -20 -5 15 -7 -14
-6 -77 0 -57 5 -103 9 -103 5 0 8 -17 7 -37 -5 -104 7 -118 54 -68 29 30 39
35 50 26 10 -8 16 -9 21 -1 3 5 0 10 -7 10 -10 0 -9 3 2 9 8 6 18 7 23 4 4 -3
14 3 21 12 7 10 32 19 60 22 33 4 44 9 37 16 -14 14 -14 87 -1 87 6 0 10 11
10 23 0 20 5 24 31 24 17 0 35 6 40 14 16 25 9 30 -13 9 -24 -22 -38 -26 -38
-10 0 6 4 10 9 10 5 0 40 30 78 67 37 37 71 67 75 66 4 -2 5 4 2 12 -9 22 5
18 24 -6 21 -25 52 -16 53 15 1 15 4 11 10 -12 8 -26 15 -33 32 -32 12 1 36 2
52 1 26 -1 28 -3 12 -12 -10 -6 -25 -8 -33 -5 -11 4 -13 0 -8 -19 5 -22 3 -24
-37 -27 -35 -2 -43 -7 -44 -25 -1 -18 2 -20 16 -12 10 5 29 9 43 9 19 0 26 -5
26 -20 0 -16 -6 -20 -32 -19 l-33 1 30 13 c25 12 26 14 9 15 -12 0 -34 -12
-49 -26 -15 -14 -33 -23 -40 -20 -7 2 -12 -4 -12 -17 -1 -41 -3 -48 -13 -42
-5 3 -7 22 -4 42 2 22 0 40 -7 44 -19 12 -2 59 22 59 11 0 17 5 14 10 -3 6 1
10 9 10 9 0 16 4 16 10 0 6 -10 5 -26 -2 -20 -10 -27 -9 -34 2 -6 9 -4 17 3
22 9 5 8 8 -3 8 -8 -1 -23 -11 -32 -25 -17 -23 -17 -24 1 -30 25 -8 17 -55 -9
-48 -10 3 -27 -4 -40 -17 l-22 -22 29 2 c51 4 69 1 54 -9 -8 -5 -9 -11 -3 -15
5 -3 7 -17 4 -31 -3 -18 -1 -25 9 -23 10 2 13 -6 12 -27 -2 -16 -3 -42 -3 -57
-1 -20 -7 -28 -20 -28 -20 0 -36 -17 -25 -28 3 -3 10 0 15 8 7 11 10 11 10 2
0 -7 9 -23 20 -35 12 -12 28 -46 36 -75 13 -45 14 -61 4 -98 -7 -25 -10 -48
-6 -51 4 -4 9 3 13 16 5 20 7 19 23 -16 40 -86 106 -128 188 -120 44 5 63 13
100 44 25 21 52 53 62 70 l17 31 12 -49 c7 -28 10 -53 7 -56 -3 -4 -6 1 -6 10
0 23 -8 21 -31 -5 l-20 -23 16 33 c9 18 14 39 11 45 -2 7 -5 5 -5 -4 -1 -8
-12 -26 -26 -39 -19 -18 -25 -33 -23 -55 3 -33 30 -42 36 -12 2 10 -3 17 -12
17 -9 0 -16 7 -16 16 0 14 3 14 15 4 11 -9 19 -9 28 -2 13 11 56 6 58 -7 6
-35 4 -81 -3 -81 -5 0 -7 3 -5 8 3 4 0 18 -5 32 -8 22 -10 23 -19 8 -6 -10
-16 -18 -24 -18 -8 0 -17 -5 -21 -12 -5 -7 -3 -8 5 -3 9 5 9 1 -1 -14 -11 -18
-11 -23 2 -31 8 -5 18 -6 23 -3 5 3 13 -1 18 -8 6 -10 9 -7 10 11 0 14 3 19 6
12 4 -10 9 -10 24 4 15 13 16 20 7 38 -10 19 -10 20 5 7 10 -7 17 -18 17 -24
0 -5 12 -21 26 -34 28 -26 26 -45 -2 -22 -15 12 -17 12 -12 -1 3 -8 16 -15 29
-15 13 0 40 -11 59 -23 19 -12 45 -25 58 -27 12 -3 33 -7 47 -10 14 -3 23 -10
20 -15 -3 -6 -1 -10 4 -10 6 0 11 -9 11 -20 0 -18 2 -19 22 -8 13 7 28 19 34
27 6 8 20 12 33 8 11 -3 19 -1 15 4 -3 5 -1 9 5 9 5 0 12 -6 14 -12 3 -7 6 -3
6 10 1 20 -16 27 -29 11 -3 -3 -25 -11 -49 -17 -53 -13 -42 -1 20 22 47 17 73
41 98 89 l15 27 25 -23 c50 -45 163 -58 215 -24 14 10 26 13 26 7 0 -5 5 -10
11 -10 6 0 8 7 5 16 -3 9 1 25 9 37 8 12 15 19 16 17 11 -64 -8 -94 -55 -85
-29 5 -29 4 -8 -7 17 -8 28 -8 49 1 23 11 25 10 14 -3 -9 -10 -30 -15 -64 -15
-123 2 -157 -1 -157 -16 0 -7 5 -17 12 -21 15 -9 126 -5 147 6 9 4 30 12 46
17 25 7 30 14 28 37 -2 23 1 27 17 23 25 -6 26 10 2 17 -13 4 -18 17 -19 48
l-2 43 19 -40 c18 -40 70 -98 70 -78 0 16 56 36 85 31 14 -3 25 -1 25 5 0 5
11 7 25 5 14 -3 22 -1 18 4 -6 11 77 6 116 -7 19 -6 22 -5 16 5 -6 10 -4 12 9
7 10 -4 30 -7 46 -7 24 0 31 -6 41 -35 8 -20 20 -35 29 -34 10 0 11 2 3 6 -7
2 -13 11 -13 19 0 9 5 12 10 9 6 -3 10 1 10 9 0 9 -4 16 -10 16 -14 0 -13 27
2 36 7 4 8 3 4 -4 -4 -7 -3 -12 3 -12 5 0 12 -10 14 -22 3 -14 4 -9 4 10 -1
21 -8 37 -19 43 -23 12 -31 11 -22 -3 5 -7 3 -8 -6 -3 -9 6 -10 1 -5 -16 5
-18 4 -21 -4 -9 -12 16 -5 51 13 62 6 4 7 10 3 15 -5 4 -12 1 -17 -7 -5 -7
-16 -15 -26 -16 -17 -3 -34 -21 -34 -38 0 -4 9 2 20 15 10 13 19 19 20 12 0
-6 -5 -15 -10 -18 -6 -4 -8 -11 -5 -16 4 -5 -6 -9 -20 -9 -18 0 -25 4 -21 13
3 6 9 20 12 30 4 9 22 24 40 33 19 9 31 21 28 26 -4 6 -10 5 -15 -3 -11 -18
-21 -6 -13 14 6 17 8 16 112 -70 26 -21 26 -22 8 -40 -18 -17 -18 -17 -12 7 6
21 5 22 -4 7 -6 -9 -8 -22 -5 -27 3 -6 -2 -23 -11 -39 -19 -32 -20 -26 27
-123 11 -22 12 -68 2 -68 -5 0 -9 -18 -10 -40 -1 -34 4 -43 28 -61 17 -12 49
-23 72 -26 23 -2 52 -9 64 -15 54 -26 192 75 214 157 16 59 6 128 -29 195 -24
45 -28 60 -17 60 9 0 12 6 9 15 -4 8 -1 15 5 15 6 0 11 -8 12 -17 0 -14 2 -13
9 5 11 25 15 26 58 11 17 -6 37 -9 44 -6 7 2 -3 9 -22 15 -29 8 -31 10 -11 11
19 1 22 4 13 13 -8 8 -18 9 -36 0 -19 -8 -27 -8 -36 3 -13 16 -4 20 90 35 82
12 81 13 78 -2 -4 -18 -19 -28 -44 -28 -12 0 -24 -7 -28 -15 -4 -11 2 -15 22
-14 24 0 25 1 7 9 -13 6 -15 9 -5 9 8 1 26 4 39 8 15 4 22 2 18 -4 -4 -6 4
-11 18 -11 15 0 22 5 18 12 -3 6 -3 8 2 4 4 -4 14 -3 22 3 9 9 13 8 13 0 0 -6
-4 -11 -10 -11 -5 0 -10 -4 -10 -10 0 -19 15 -10 32 21 10 16 13 27 8 24 -6
-4 -13 1 -17 10 -6 17 14 38 29 29 4 -3 5 2 2 10 -3 9 -10 16 -16 16 -5 0 -6
10 -2 22 6 21 6 21 -10 5 -21 -21 -30 -21 -50 -1 -9 8 -16 12 -16 8 0 -5 -5
-3 -12 4 -7 7 -20 12 -31 12 -10 0 -15 5 -12 10 4 6 -15 10 -49 10 -30 0 -57
-4 -60 -8 -3 -5 9 -7 27 -5 29 2 30 2 7 -6 -24 -9 -24 -9 -2 -10 12 -1 22 -5
22 -11 0 -6 26 -10 58 -10 46 0 60 -4 72 -20 10 -13 21 -18 35 -14 11 3 15 2
9 -3 -6 -4 -13 -16 -17 -25 -3 -10 -14 -18 -24 -19 -16 0 -16 -1 2 -8 17 -7
16 -8 -8 -13 -22 -4 -27 -2 -25 11 2 8 14 21 28 28 14 7 19 13 11 13 -8 0 -19
7 -25 16 -8 11 -34 18 -79 21 -37 3 -64 10 -61 14 3 5 -16 8 -43 8 -47 -2 -47
-2 -13 -9 20 -4 27 -8 15 -9 -11 -1 -37 -4 -57 -6 -21 -2 -38 0 -38 5 0 6 -7
10 -16 10 -14 0 -14 -3 -4 -15 10 -12 9 -15 -8 -15 -11 0 -20 6 -19 13 1 35
-5 47 -23 47 -10 0 -24 -9 -30 -20 -6 -12 -7 -20 -1 -20 5 0 11 5 13 12 3 7
12 9 23 4 18 -6 18 -8 -5 -20 -14 -7 -30 -11 -36 -9 -16 6 -66 112 -66 140 0
13 -4 23 -9 23 -5 0 -9 33 -9 74 0 64 2 74 19 79 24 6 38 -23 18 -38 -15 -11
-30 -68 -16 -59 5 3 9 15 10 27 1 18 2 16 10 -8 6 -20 5 -31 -4 -37 -9 -6 -9
-10 0 -19 10 -10 14 -7 22 12 9 22 16 12 12 -18 -1 -7 3 -13 9 -13 13 0 13 26
-1 49 -10 15 -8 22 8 38 11 11 23 27 25 34 3 8 9 10 14 6 4 -4 3 -16 -3 -26
-15 -24 -6 -33 19 -20 17 9 19 8 13 -10 -4 -15 -2 -21 8 -21 10 0 13 8 9 25
-5 28 4 31 33 9 14 -10 31 -13 56 -9 22 4 40 2 44 -4 8 -13 25 -5 25 12 0 7
-4 6 -10 -3 -5 -8 -10 -10 -10 -4 0 6 6 17 14 23 8 7 17 38 21 69 4 34 15 67
27 82 l20 25 -6 -46 c-4 -36 -2 -46 10 -46 12 0 14 11 10 56 -4 37 -1 58 7 64
8 5 5 7 -8 5 -11 -2 -23 -7 -27 -12 -5 -8 -13 23 -21 84 -1 8 -12 16 -25 18
-12 2 -22 7 -22 12 0 5 -7 7 -15 5 -49 -16 -48 -15 -35 -30 8 -9 21 -13 31
-10 11 4 19 2 19 -5 0 -7 11 -25 25 -42 25 -29 33 -72 16 -82 -5 -3 -12 9 -15
27 -12 66 -86 112 -206 129 -79 12 -89 27 -20 29 32 1 33 2 10 9 -21 7 -22 8
-4 9 11 1 24 -3 30 -8 5 -5 20 -11 34 -14 15 -3 8 -5 -19 -6 -58 -1 -50 -7 24
-16 52 -6 58 -5 46 8 -10 13 -9 15 6 11 10 -3 29 -1 43 4 24 10 24 10 -6 10
-17 -1 -39 4 -50 11 -16 10 -13 11 21 7 26 -4 33 -3 20 3 -29 12 -92 22 -77
13 7 -5 -35 -7 -95 -5 -80 3 -104 1 -93 -7 11 -8 0 -9 -45 -5 -71 7 -102 -6
-71 -30 14 -10 37 -13 80 -10 l61 4 -60 -13 c-33 -7 -79 -22 -102 -34 -24 -12
-43 -18 -43 -12 0 19 -33 10 -56 -16 -35 -37 -29 -47 7 -13 18 16 34 27 37 24
3 -2 -6 -15 -19 -27 -60 -56 -99 -135 -99 -202 0 -14 -5 -26 -10 -26 -6 0 -8
-10 -6 -22 13 -62 16 -102 8 -89 -6 8 -12 9 -16 3 -4 -6 -1 -14 7 -19 26 -17
36 -59 27 -122 -15 -104 -68 -143 -72 -53 l-1 47 -4 -42 c-2 -23 1 -52 7 -64
10 -17 8 -25 -11 -45 -27 -29 -42 -22 -34 17 4 16 3 29 -2 29 -13 0 6 170 23
202 8 15 14 35 14 45 0 10 9 32 20 48 28 43 25 58 -20 98 -21 20 -35 39 -29
42 5 4 7 11 4 16 -4 5 1 9 10 9 12 0 15 -6 10 -20 -4 -11 -2 -20 4 -20 6 0 11
6 11 14 0 9 7 12 20 9 29 -8 42 32 21 68 -14 26 -16 26 -28 9 -7 -10 -10 -25
-7 -34 10 -25 -19 -19 -40 8 -21 29 -63 41 -97 27 -14 -6 -18 -10 -9 -11 8 -1
4 -6 -10 -10 -20 -6 -14 -8 25 -8 37 -1 45 2 30 8 -17 7 -15 9 13 9 39 1 42
-14 5 -27 -25 -9 -25 -11 -6 -11 12 -1 25 4 28 9 4 6 11 7 17 4 14 -9 -11 -24
-40 -24 -13 0 -21 -4 -18 -9 3 -5 16 -7 29 -4 17 4 19 3 11 -6 -9 -9 -21 -10
-51 -2 -22 6 -59 12 -81 13 -23 1 -39 5 -37 9 3 4 -2 10 -11 13 -24 9 -31 7
-14 -4 12 -8 9 -10 -12 -10 -16 0 -28 -4 -28 -9 0 -5 -8 -12 -17 -14 -14 -4
-13 -5 3 -6 23 -1 39 -26 24 -36 -6 -4 -10 -2 -10 3 0 4 -14 15 -32 23 l-32
16 32 14 c18 8 32 18 32 22 0 5 4 6 9 3 5 -4 11 -2 13 2 1 5 28 16 58 25 47
13 50 16 20 14 -19 -1 -46 -7 -60 -14 -30 -15 -76 -17 -85 -3 -3 6 -21 10 -38
11 l-32 1 35 13 c43 16 63 18 55 5 -3 -5 1 -10 10 -10 9 0 13 5 10 10 -8 13 8
13 20 1 6 -6 25 -6 45 -2 l35 8 -27 11 c-15 6 -28 21 -30 34 l-5 23 -11 -25
c-8 -20 -11 -21 -11 -6 -1 15 -4 16 -16 6 -9 -8 -15 -9 -15 -2 0 6 4 13 9 16
17 11 -1 56 -25 62 -12 3 -98 0 -190 -6 -140 -11 -168 -10 -175 1 -5 8 -9 9
-9 4 0 -6 -13 -12 -29 -13 -21 -2 -31 3 -35 15 -7 22 49 184 69 199 8 6 15 21
15 33 0 11 4 21 9 21 5 0 12 10 15 23 2 12 3 -7 1 -43 -2 -36 -1 -55 1 -42 6
25 22 29 30 7 5 -12 10 -10 25 9 21 27 24 36 10 36 -5 0 -13 -9 -16 -21 -4
-11 -9 -18 -11 -16 -3 3 2 22 11 43 15 34 18 36 25 19 6 -17 8 -15 12 13 4 28
2 31 -14 26 -13 -4 -18 0 -18 14 0 11 6 22 13 25 14 5 -1 38 -18 39 -5 0 -21
4 -34 9 -19 8 -22 7 -17 -6 7 -19 -8 -19 -24 0 -18 22 -32 18 -20 -5 12 -23
-1 -27 -22 -6 -14 13 -168 29 -168 17 0 -4 -13 -12 -30 -18 -16 -6 -30 -7 -30
-2 0 4 -7 6 -15 3 -11 -5 -13 -2 -9 10 8 20 -9 21 -26 1 -7 -8 -19 -15 -27
-15 -12 0 -12 3 1 16 9 8 16 18 16 22 -1 12 -60 -58 -60 -70 0 -9 3 -9 12 0
15 15 38 16 38 2 0 -5 -7 -10 -15 -10 -8 0 -15 -4 -15 -10 0 -5 -7 -10 -15
-10 -8 0 -15 -4 -15 -10 0 -5 5 -10 10 -10 6 0 10 -7 10 -15 0 -20 -16 -19
-24 2 -5 12 -9 14 -18 5 -14 -14 -64 -16 -73 -3 -6 11 -75 3 -89 -10 -6 -5
-23 -9 -38 -9 -93 0 -145 -98 -93 -174 19 -27 21 -36 10 -36 -8 0 -15 4 -15
10 0 5 -6 7 -14 4 -24 -9 -37 29 -20 61 16 30 9 51 -7 22 -6 -9 -14 -15 -19
-12 -5 3 -14 -13 -20 -35 -6 -22 -13 -40 -15 -40 -11 0 -35 34 -35 48 1 14 5
12 20 -7 21 -25 27 -13 9 18 -10 14 -8 26 9 57 12 21 27 53 33 69 l11 30 14
-34 c17 -40 17 -44 4 -36 -6 3 -10 -4 -10 -17 l0 -22 15 22 c13 17 13 26 5 43
-7 11 -9 33 -6 47 5 20 4 23 -4 12 -8 -12 -10 -9 -10 13 0 15 4 27 9 27 5 0 7
39 5 90 -3 52 -1 98 5 108 9 14 11 12 12 -13 l1 -30 8 35 c6 23 5 37 -3 42
-16 10 -27 0 -27 -23 0 -10 -4 -19 -10 -19 -5 0 -10 11 -10 25 0 14 -5 25 -11
25 -6 0 -25 11 -42 24 -61 47 -137 61 -201 36 -15 -5 -25 -6 -21 -1 3 5 1 12
-5 16 -5 3 -15 -5 -22 -19z m569 -375 c-10 -12 -8 -13 14 -8 22 6 28 3 33 -16
3 -13 2 -37 -3 -54 -5 -17 -5 -37 0 -46 5 -8 7 -33 4 -54 -4 -36 -3 -37 9 -14
7 13 11 33 8 45 -4 16 -2 18 7 10 16 -14 -15 -114 -34 -114 -8 0 -11 8 -8 20
4 16 1 20 -18 19 -22 0 -23 -1 -4 -9 15 -6 7 -9 -31 -9 -95 -2 -148 -36 -124
-81 6 -11 17 -20 25 -20 8 0 19 -9 25 -21 7 -11 18 -18 25 -15 7 2 16 -2 19
-10 8 -21 25 -17 36 9 6 15 7 7 3 -28 -3 -27 -10 -51 -15 -53 -4 -2 -8 -16 -8
-32 0 -15 -7 -33 -15 -40 -9 -7 -15 -29 -15 -51 0 -28 4 -39 15 -39 8 0 15 5
15 10 0 6 -4 10 -10 10 -5 0 -10 9 -10 20 0 27 14 25 28 -2 10 -21 11 -19 11
16 1 34 3 37 17 25 15 -12 16 -10 11 16 -16 79 -18 103 -9 109 5 3 7 17 4 31
-3 21 0 25 18 25 19 0 21 -4 15 -27 -4 -16 -7 -81 -6 -145 1 -76 -2 -118 -9
-118 -5 0 -10 -10 -10 -22 0 -29 -22 -88 -33 -88 -4 0 -5 -5 -1 -12 4 -6 3 -8
-3 -5 -6 4 -15 -5 -22 -19 -15 -34 -37 -25 -33 15 1 17 -2 31 -7 31 -6 0 -10
32 -10 70 0 39 4 68 8 66 4 -3 8 9 8 27 2 64 30 160 45 151 4 -3 8 0 8 5 0 6
-6 11 -13 11 -8 0 -22 9 -31 19 -10 11 -31 23 -47 26 -26 6 -34 15 -30 37 0 4
-13 5 -29 1 -39 -7 -41 17 -2 46 20 16 24 23 14 29 -19 13 11 35 36 28 34 -11
96 10 129 43 28 27 31 36 26 69 -6 37 -38 102 -52 102 -4 0 -16 6 -26 14 -17
12 -15 13 22 12 35 0 40 -3 30 -15z m858 -351 c-3 -5 -14 -10 -23 -10 -10 0
-27 -6 -38 -14 -13 -9 -57 -16 -118 -20 -54 -2 -101 -8 -104 -12 -4 -3 36 -4
88 0 97 6 151 -1 158 -22 2 -7 -1 -12 -8 -12 -6 0 -9 4 -6 9 6 10 -41 21 -90
21 -34 0 -54 -15 -32 -23 7 -2 2 -8 -12 -11 -14 -4 -37 -2 -50 4 -23 9 -22 10
10 5 31 -4 32 -4 11 5 -17 7 -33 7 -56 -1 -20 -7 -43 -9 -61 -4 l-29 9 35 6
c32 7 31 7 -16 9 -28 0 -66 4 -83 7 -28 6 -31 4 -31 -18 0 -14 6 -25 13 -25
48 -3 64 -9 60 -19 -7 -19 33 -27 95 -19 l56 7 -25 19 c-28 22 -13 26 17 5 18
-13 27 -12 69 2 39 12 45 17 29 23 -16 6 -14 8 9 8 16 1 26 -3 23 -8 -9 -14
74 -23 90 -10 8 7 18 9 21 5 16 -16 -26 -26 -87 -22 -42 3 -56 2 -40 -3 21 -7
18 -8 -17 -8 -89 2 -170 -70 -193 -173 -7 -30 -16 -63 -22 -73 -5 -10 -6 -27
-3 -38 4 -11 2 -19 -4 -19 -14 0 -14 65 -1 90 8 16 8 18 -5 14 -11 -5 -15 1
-15 21 0 15 -8 34 -17 41 -11 8 -13 13 -5 14 6 0 12 4 12 9 0 5 -8 8 -17 7
-13 -1 -18 7 -18 32 0 19 5 32 13 32 19 0 14 20 -5 21 -15 0 -15 2 2 9 16 6
12 8 -17 8 -30 -1 -38 -5 -38 -20 0 -20 16 -24 23 -5 3 7 6 6 6 -5 1 -9 -3
-20 -9 -23 -12 -7 -12 -109 0 -180 l9 -50 -2 47 c-1 26 1 44 4 40 10 -10 16
-91 7 -86 -5 3 -8 -10 -8 -30 0 -19 -3 -41 -6 -50 -3 -9 -1 -16 5 -16 6 0 11
12 11 26 0 14 4 23 10 19 6 -4 10 15 10 50 0 37 4 54 11 50 6 -4 8 -22 5 -44
-4 -20 -7 -51 -8 -68 -1 -18 -5 -33 -9 -33 -4 0 -10 -12 -14 -27 l-7 -28 -19
40 -19 40 6 -35 c3 -19 11 -39 18 -45 7 -5 11 -16 9 -22 -3 -7 3 -20 11 -29
15 -14 16 -13 16 15 0 34 28 111 40 111 5 0 10 8 13 18 2 10 7 1 12 -21 9 -46
-9 -109 -42 -147 l-22 -25 -25 30 c-32 39 -46 96 -41 170 3 50 2 53 -4 20 -6
-27 -8 9 -8 110 1 119 2 135 8 80 5 -57 6 -50 3 37 -1 59 1 110 6 113 4 2 7
19 5 37 -3 41 7 48 70 47 43 -1 46 -2 20 -9 -16 -4 20 -5 80 -3 181 7 239 11
265 22 33 13 43 13 35 1z m-28 -388 c-3 -40 -11 -79 -17 -87 -7 -8 -9 -18 -6
-23 6 -11 -15 -62 -26 -62 -5 0 -8 -6 -8 -14 0 -7 -7 -19 -15 -26 -12 -10 -16
-8 -23 11 -13 33 -24 180 -12 154 6 -14 9 -15 10 -5 0 12 3 11 11 -3 8 -14 8
-22 0 -30 -13 -13 -14 -76 -1 -97 5 -8 10 -12 12 -10 34 53 39 71 24 86 -16
15 -21 46 -17 92 1 13 -3 30 -10 38 -6 7 -8 22 -4 31 6 15 9 13 20 -12 7 -16
14 -24 14 -17 1 7 6 10 12 6 8 -5 10 1 7 17 -3 19 0 25 15 25 18 0 19 -6 14
-74z m780 -389 c71 -121 77 -170 20 -157 -42 9 -83 41 -97 75 -14 32 -5 103
15 123 8 7 11 16 8 20 -4 3 -2 6 4 6 6 0 29 -30 50 -67z"/>
<path d="M2925 3475 c-50 -13 -123 -42 -164 -65 -41 -22 -81 -38 -88 -36 -7 3
-15 1 -18 -4 -9 -14 -25 -12 -25 3 0 7 9 18 20 25 17 10 20 10 20 -5 0 -13 3
-14 12 -5 9 9 7 16 -7 32 -21 23 -11 28 11 5 9 -8 22 -15 29 -15 9 0 12 6 9
15 -4 9 0 15 10 15 9 0 16 5 16 10 0 7 -7 7 -21 0 -11 -7 -31 -9 -43 -6 -25 6
-40 -2 -49 -26 -3 -10 -14 -18 -23 -18 -15 0 -15 -2 1 -26 16 -26 16 -26 -7
-19 -22 7 -22 7 -3 -8 11 -8 22 -12 25 -8 3 4 14 11 25 15 13 5 7 -6 -19 -33
-22 -22 -43 -38 -48 -35 -4 3 -8 -1 -8 -9 0 -8 -16 -41 -35 -73 -19 -32 -35
-64 -35 -71 0 -7 -4 -13 -10 -13 -5 0 -7 -6 -5 -13 3 -7 -3 -29 -14 -49 -10
-21 -15 -35 -10 -32 10 6 12 -9 2 -19 -11 -11 -43 24 -43 47 0 17 -2 18 -10 6
-5 -8 -10 -10 -10 -4 0 7 -13 26 -29 43 -23 25 -37 31 -70 31 -32 0 -44 5 -57
26 -17 24 -47 44 -100 64 -16 7 -23 7 -19 0 3 -6 2 -10 -2 -10 -13 0 -50 29
-39 30 6 0 1 7 -10 16 -10 8 -13 13 -6 9 8 -4 12 2 12 19 0 14 -4 26 -9 26
-15 0 -22 -18 -9 -22 8 -3 6 -7 -5 -11 -11 -4 -20 1 -27 13 -11 21 -70 29 -70
10 0 -6 10 -8 24 -4 13 3 27 1 30 -5 10 -15 -33 -14 -67 2 -31 14 -37 31 -7
22 11 -4 20 -2 20 4 0 6 -9 11 -20 11 -31 0 -35 -1 -32 -12 3 -13 -164 2 -188
17 -20 12 -154 12 -167 0 -6 -7 -49 -14 -95 -17 -46 -3 -102 -13 -125 -23 -39
-16 -70 -18 -198 -13 -22 0 -51 -2 -65 -6 l-25 -7 25 15 c29 18 21 21 -14 5
-16 -8 -22 -17 -18 -27 4 -11 1 -14 -9 -10 -8 3 -23 0 -34 -8 -10 -8 -13 -14
-7 -14 7 0 12 -7 12 -15 0 -8 5 -15 10 -15 14 0 12 27 -2 34 -7 3 -2 5 12 4
14 -1 41 0 60 2 l35 2 -30 8 -30 8 33 1 c50 2 38 -38 -21 -68 -15 -8 -30 -25
-33 -38 -4 -13 -13 -23 -21 -23 -11 0 -9 8 9 33 13 17 22 34 20 37 -2 3 7 8
20 12 23 7 22 7 -2 5 -16 -1 -29 -12 -38 -29 -15 -32 -24 -34 -42 -13 -9 10
-9 15 -1 15 19 0 12 18 -10 25 -12 4 -26 2 -33 -5 -8 -10 -7 -12 5 -7 9 3 16
0 16 -8 0 -9 -12 -12 -34 -10 -27 2 -31 0 -22 -12 7 -7 8 -17 4 -21 -4 -4 -10
-1 -12 6 -7 18 -33 -5 -33 -29 0 -11 -4 -19 -10 -19 -5 0 -7 7 -3 16 5 14 3
13 -15 -2 -12 -10 -22 -19 -22 -19 0 0 14 -1 32 -2 18 -2 35 2 39 9 4 6 12 7
18 3 13 -8 -6 -45 -40 -77 -20 -20 -34 -24 -24 -8 4 6 -6 10 -23 10 -27 0 -29
-2 -23 -27 5 -26 6 -26 9 -5 4 25 17 29 26 7 3 -8 -1 -21 -9 -29 -8 -8 -12
-22 -9 -30 5 -13 2 -14 -24 -5 -19 6 -32 19 -36 35 -7 26 -28 23 -24 -3 2 -8
-6 -20 -17 -27 -27 -15 -44 -39 -37 -50 3 -5 9 1 14 15 9 23 10 23 24 5 14
-20 14 -20 14 0 0 14 2 16 9 5 6 -10 13 -11 29 -2 30 16 40 14 15 -4 -20 -14
-38 -58 -34 -82 1 -7 -4 -13 -11 -13 -10 0 -10 -2 0 -9 11 -6 8 -13 -13 -29
-16 -13 -28 -34 -32 -57 -3 -19 -10 -38 -14 -41 -5 -3 -9 -10 -9 -15 0 -6 5
-7 10 -4 6 3 10 3 10 -1 0 -15 -34 -84 -42 -84 -13 0 -9 18 5 24 6 3 1 4 -13
3 -21 -2 -25 -8 -28 -41 -2 -22 -1 -50 3 -63 5 -21 8 -23 21 -12 10 8 13 23
10 48 -3 20 -3 28 0 18 3 -9 9 -15 13 -13 11 7 10 -27 -2 -41 -6 -9 -5 -18 4
-30 12 -15 12 -16 -6 -9 -12 4 -4 -8 19 -28 24 -22 36 -41 33 -50 -4 -9 -2
-18 4 -21 5 -4 8 -18 7 -33 -2 -20 2 -27 17 -30 l20 -4 -20 17 -20 17 20 -7
c11 -4 29 -10 40 -12 11 -3 39 -14 61 -24 48 -23 76 -16 111 25 25 28 49 35
39 11 -3 -8 -1 -15 5 -15 6 0 8 -4 5 -9 -3 -5 1 -14 9 -21 9 -7 13 -21 10 -30
-8 -25 5 -56 16 -39 5 8 3 17 -4 21 -6 4 -8 10 -5 13 12 12 28 -6 28 -31 0
-14 6 -35 13 -47 8 -12 13 -28 12 -34 -2 -7 -3 -28 -5 -45 l-2 -33 -12 34
c-10 28 -14 31 -19 17 -4 -9 -11 -14 -17 -11 -5 3 -10 2 -10 -4 0 -5 5 -13 10
-16 6 -3 10 -1 10 4 0 6 5 11 10 11 6 0 10 -6 10 -14 0 -7 6 -19 14 -25 12
-10 15 -7 19 21 3 27 4 24 5 -14 1 -26 7 -59 14 -75 6 -15 11 -31 10 -35 -1
-4 4 -5 11 -2 7 2 21 -3 32 -12 20 -16 20 -16 0 -9 -23 7 -25 8 -42 6 -7 0
-13 -6 -13 -12 0 -6 7 -9 14 -6 10 4 13 1 9 -9 -6 -16 -23 -19 -23 -4 0 6 -5
10 -11 10 -6 0 -8 -9 -4 -20 3 -11 2 -20 -4 -20 -5 0 -12 8 -14 18 -4 14 -5
13 -6 -4 0 -11 8 -29 20 -40 21 -19 21 -19 18 1 -2 11 1 20 6 20 6 0 10 -15
11 -33 1 -18 5 -36 9 -40 5 -4 5 1 2 10 -4 12 -1 16 14 15 24 -2 41 -29 33
-51 -5 -12 -12 -10 -43 12 -65 48 -114 109 -107 135 3 14 -1 32 -9 43 -14 18
-15 17 -10 -11 6 -27 5 -28 -7 -10 -14 22 -18 75 -5 75 4 0 7 -7 7 -15 0 -9 6
-12 17 -8 12 5 14 3 8 -8 -4 -8 -5 -11 0 -7 5 5 10 23 11 40 3 30 2 31 -7 9
-5 -13 -11 -22 -14 -20 -7 8 7 49 16 49 5 0 9 5 9 11 0 5 -4 8 -9 5 -4 -3 -17
4 -27 15 -17 19 -17 21 -2 30 9 5 24 16 32 24 11 11 16 12 19 2 4 -8 6 -7 6 4
1 8 -6 24 -14 35 -14 18 -14 18 -15 -9 0 -36 -20 -25 -21 11 0 24 -1 25 -9 7
l-9 -20 0 20 c-1 17 -3 17 -11 5 -8 -13 -10 -12 -10 2 0 12 -7 17 -22 15 -13
-1 -25 -5 -28 -9 -3 -4 -12 -3 -20 2 -13 9 -13 10 0 10 12 0 13 2 1 9 -10 6
-5 11 20 16 22 5 34 4 37 -4 2 -6 8 -9 13 -5 5 3 9 0 9 -5 0 -6 5 -11 10 -11
6 0 10 8 10 19 0 24 -44 34 -88 18 -21 -7 -31 -16 -27 -25 4 -10 0 -12 -11 -8
-8 3 -19 6 -22 6 -4 0 0 5 8 10 11 7 6 10 -21 10 -50 0 -48 -26 3 -33 49 -7
73 -24 57 -43 -6 -8 -18 -14 -25 -14 -17 0 -19 -30 -1 -31 6 -1 1 -5 -13 -9
-22 -7 -21 -8 13 -9 44 -1 97 -45 97 -79 0 -11 3 -29 6 -39 5 -12 4 -15 -4 -8
-5 6 -12 21 -14 34 -4 35 -46 73 -86 78 -34 5 -92 -13 -92 -28 0 -5 -6 -6 -13
-4 -9 4 -11 -12 -8 -67 2 -40 4 -102 5 -137 0 -60 1 -62 13 -35 11 27 12 27
13 6 0 -13 4 -32 10 -42 7 -13 5 -21 -6 -31 -13 -11 -14 -9 -8 17 4 17 3 25
-2 21 -5 -5 -9 -31 -9 -58 0 -27 -4 -48 -9 -48 -9 1 -26 -21 -26 -34 0 -5 5
-5 12 -1 7 4 8 3 4 -5 -24 -37 -30 65 -7 108 13 23 14 44 3 38 -4 -3 -7 8 -8
24 -1 15 3 26 7 23 14 -8 10 33 -4 48 -7 7 -13 43 -14 83 -2 48 0 65 7 55 7
-11 9 -6 6 20 -3 30 -7 36 -37 42 -19 4 -38 2 -43 -3 -6 -6 -4 -9 7 -9 9 0 17
-4 17 -9 0 -5 -18 -8 -39 -7 -22 0 -37 -2 -35 -6 2 -4 0 -26 -5 -50 -7 -29 -6
-46 1 -55 7 -9 7 -13 0 -13 -6 0 -14 5 -17 11 -4 6 -13 8 -20 5 -18 -7 -29 53
-13 72 10 12 10 16 1 19 -7 3 -13 12 -13 20 0 13 3 13 15 3 12 -10 18 -10 30
0 8 7 24 10 35 7 11 -3 17 -1 14 4 -3 5 2 12 11 15 10 4 13 13 10 25 -4 13 -1
19 9 19 8 0 18 -9 21 -20 7 -21 25 -28 25 -10 0 6 -5 10 -11 10 -5 0 -8 4 -4
10 3 5 13 7 23 4 15 -5 15 -4 2 6 -12 10 -11 11 10 6 30 -6 128 18 113 27 -6
4 -18 4 -27 1 -9 -3 -16 -1 -16 5 0 6 10 11 22 11 16 0 19 3 11 11 -7 7 -22 4
-49 -10 -41 -22 -94 -28 -94 -11 0 6 -11 10 -25 10 -33 0 -32 -18 2 -22 39 -4
41 -26 2 -25 -26 2 -32 -2 -34 -20 -2 -32 -10 -37 -29 -18 -10 11 -16 12 -16
4 0 -6 -11 0 -25 15 -18 19 -25 38 -25 67 0 35 3 39 25 39 18 0 25 -5 25 -19
0 -12 6 -18 16 -17 19 3 35 26 27 40 -4 5 1 7 10 3 9 -3 19 -2 22 3 4 6 -3 10
-14 10 -12 0 -21 7 -21 15 0 8 -8 14 -17 13 -37 -3 -53 2 -53 17 0 8 -7 15
-15 15 -10 0 -15 11 -15 35 0 43 -11 45 -29 4 -10 -23 -11 -51 -5 -117 7 -65
9 -76 12 -44 4 59 18 53 25 -12 7 -69 -3 -188 -14 -161 -5 12 -7 -7 -7 -50 0
-38 3 -59 5 -45 3 14 9 30 15 35 7 7 9 -7 5 -45 -3 -30 -3 -49 0 -42 4 10 9 8
20 -7 8 -12 11 -26 8 -31 -3 -6 -2 -10 4 -10 17 0 23 20 11 35 -7 8 -10 26 -8
40 3 13 1 22 -3 19 -5 -3 -9 2 -9 10 0 20 14 20 31 0 16 -20 22 -120 8 -146
-12 -22 -2 -40 10 -19 7 10 10 9 14 -3 4 -9 4 -22 1 -29 -2 -7 2 -21 10 -32
15 -19 15 -19 16 10 0 17 2 63 4 102 2 40 1 73 -4 73 -15 0 -16 46 -2 60 13
12 14 10 10 -13 -3 -14 -2 -24 2 -22 4 3 11 -6 14 -20 4 -14 13 -25 21 -25 23
0 29 -46 15 -108 -8 -37 -9 -57 -2 -60 5 -1 8 -12 5 -23 -5 -20 -6 -20 -20 1
-14 19 -40 19 -27 -1 3 -5 8 -7 12 -5 4 2 7 -9 8 -25 1 -19 12 -41 31 -59 l30
-29 13 24 c7 13 10 31 7 39 -5 12 1 16 24 16 20 0 28 -4 23 -12 -4 -7 -3 -8 4
-4 9 5 9 13 1 28 -9 17 -13 18 -20 7 -5 -8 -9 -9 -9 -4 0 6 7 21 16 34 10 14
13 26 7 30 -15 10 -23 40 -13 46 6 4 10 1 10 -6 0 -6 14 -34 30 -61 17 -27 27
-54 24 -60 -5 -7 -2 -9 9 -5 8 3 18 0 20 -7 6 -16 -24 -16 -36 -1 -6 6 -10 6
-14 -2 -2 -7 -11 -13 -19 -13 -8 0 -14 -4 -14 -10 0 -5 -7 -6 -17 -3 -10 4
-14 2 -10 -4 4 -6 0 -13 -8 -17 -8 -3 -21 -21 -29 -41 -11 -26 -21 -35 -39
-35 -38 0 -60 -34 -65 -99 -13 -174 140 -411 290 -451 32 -9 46 -7 82 9 38 16
49 17 80 7 19 -7 44 -20 54 -29 47 -43 135 -40 166 5 14 20 17 20 48 5 41 -19
80 -12 117 22 27 26 30 26 164 25 133 0 138 -1 164 -26 37 -33 69 -40 110 -23
32 14 36 13 61 -10 37 -34 108 -35 149 -2 45 38 89 49 123 32 104 -54 245 37
334 213 15 29 31 50 35 47 5 -3 7 4 4 15 -6 22 7 26 25 8 9 -9 12 -9 12 0 0 7
-4 12 -9 12 -5 0 -12 8 -15 17 -4 10 -4 14 0 10 5 -4 14 3 21 15 12 22 12 22
13 -9 0 -17 6 -34 13 -37 10 -5 10 -7 0 -12 -17 -8 -16 -24 1 -24 8 0 17 -6
20 -12 3 -7 3 -3 1 9 -3 12 -1 24 5 28 6 4 10 -6 10 -25 0 -27 -3 -30 -20 -25
-26 8 -26 -7 0 -23 12 -7 18 -17 15 -23 -4 -5 -1 -17 7 -26 12 -14 10 -16 -17
-11 l-30 6 30 -25 c17 -15 31 -21 33 -14 5 16 22 14 22 -3 0 -22 11 -25 50
-17 l35 7 -37 13 c-21 7 -38 17 -38 23 0 5 6 8 13 5 6 -2 22 0 35 4 13 5 22 5
22 -1 0 -6 6 -10 13 -10 8 0 14 6 14 13 0 7 -17 13 -41 15 -22 1 -43 8 -47 14
-4 6 -12 7 -18 4 -6 -4 -9 -12 -6 -17 4 -5 2 -9 -4 -9 -20 0 -21 20 -2 42 l21
21 19 -21 c11 -14 25 -20 35 -16 9 3 16 1 16 -6 0 -6 4 -9 9 -6 13 9 131 -15
125 -25 -3 -5 4 -10 15 -10 12 -1 27 -2 34 -3 6 -1 15 -5 20 -11 4 -6 10 -5
16 4 7 10 21 12 55 8 26 -4 46 -3 46 2 0 5 6 11 13 14 6 2 1 2 -13 0 -14 -1
-32 1 -40 6 -12 8 -11 13 5 31 10 11 24 19 31 16 14 -5 9 19 -9 42 -6 8 -6 12
2 12 6 0 11 9 11 20 0 11 -4 20 -10 20 -5 0 -10 -8 -10 -18 0 -18 -18 -42 -31
-42 -17 0 -16 45 2 76 10 19 19 41 19 49 0 8 4 15 10 15 5 0 9 8 8 18 -1 9 0
28 1 42 2 23 3 24 11 5 11 -26 12 -47 1 -41 -4 3 -6 -6 -3 -19 2 -14 0 -25 -6
-25 -5 0 -12 -11 -14 -24 -4 -19 -1 -22 14 -18 14 3 18 14 18 46 0 26 3 36 9
28 7 -11 10 -10 15 3 9 24 7 32 -4 15 -8 -12 -10 -10 -10 10 0 14 -7 36 -14
49 -9 17 -11 34 -5 54 5 17 6 33 4 38 -3 4 -7 34 -10 66 -3 32 -8 72 -11 88
-4 17 -7 42 -8 57 0 14 -5 24 -10 21 -5 -3 -7 6 -4 21 3 14 1 26 -3 26 -5 0
-9 4 -9 9 0 5 8 7 19 4 13 -3 17 -11 13 -25 -3 -13 -1 -19 5 -15 6 4 10 -13
10 -46 0 -72 13 -167 24 -167 5 0 9 -16 9 -35 0 -44 24 -47 38 -6 8 23 7 32
-4 42 -8 6 -14 8 -14 3 0 -5 -7 5 -16 21 -10 18 -19 71 -24 130 -7 99 -2 119
25 109 7 -3 15 2 18 10 4 9 13 16 22 16 11 0 15 -11 15 -45 0 -26 5 -45 11
-45 7 0 9 18 5 53 l-6 52 15 -50 c8 -28 10 -54 5 -60 -4 -5 -7 -37 -6 -70 3
-57 2 -59 -10 -30 l-13 30 0 -45 c-1 -33 2 -41 9 -30 7 11 10 2 10 -32 0 -27
5 -48 11 -48 5 0 7 -5 3 -11 -4 -7 -1 -10 7 -7 8 3 15 15 17 29 6 46 9 49 42
37 35 -12 43 -8 34 15 -3 9 -14 14 -25 12 -11 -2 -19 2 -19 9 0 8 -7 26 -14
42 -8 15 -12 32 -9 38 4 7 2 7 -6 0 -10 -9 -9 -20 3 -49 19 -44 19 -45 6 -45
-5 0 -10 6 -10 14 0 7 -6 26 -14 41 -13 25 -13 30 1 44 15 15 15 16 0 19 -9 2
-17 10 -17 18 0 26 16 15 40 -28 25 -45 75 -98 92 -98 20 0 88 -23 88 -30 0
-4 -16 -11 -35 -17 -39 -12 -47 -2 -12 15 12 6 17 11 11 11 -6 1 -28 -12 -48
-29 -29 -23 -44 -28 -67 -23 -25 5 -29 2 -29 -16 0 -17 6 -21 33 -21 18 0 38
-5 44 -11 7 -7 13 -7 17 0 4 5 -12 14 -36 20 l-43 10 45 -1 c87 -1 103 1 92
15 -8 9 7 12 69 14 43 1 81 -2 84 -7 4 -6 16 -10 27 -10 12 0 19 -3 15 -6 -3
-3 -28 -1 -55 6 -36 10 -54 10 -68 2 -17 -10 -17 -11 -1 -12 10 0 17 -7 16
-17 0 -11 -3 -13 -6 -5 -6 15 -33 16 -33 1 0 -5 -4 -7 -10 -4 -6 4 -7 -1 -3
-12 5 -15 3 -16 -8 -5 -7 6 -18 12 -24 12 -5 0 -1 -7 9 -15 14 -11 23 -12 33
-4 9 8 17 8 26 0 10 -8 17 -7 25 1 8 8 13 4 17 -14 8 -31 30 -32 33 -2 1 14
-8 28 -24 38 -28 19 -23 42 6 24 18 -12 34 -43 31 -62 -1 -5 5 -3 14 4 13 11
18 11 28 0 9 -10 9 -14 0 -17 -7 -2 -9 -11 -6 -19 3 -8 0 -14 -6 -14 -6 0 -11
5 -11 11 0 5 -5 7 -11 3 -17 -10 13 -24 42 -19 13 3 34 -2 47 -11 22 -14 22
-16 6 -28 -13 -10 -14 -15 -4 -21 9 -6 11 -4 5 5 -6 10 -3 12 11 8 22 -5 44
13 44 36 0 22 -19 29 -37 14 -15 -11 -16 -11 -10 5 3 9 2 17 -3 17 -6 0 -10
-5 -10 -11 0 -20 -28 10 -39 41 -10 30 4 55 18 32 4 -6 12 -7 20 -3 7 5 10 14
7 20 -12 19 6 12 25 -11 11 -11 22 -18 27 -13 4 4 1 10 -5 12 -19 7 -16 33 5
52 10 9 21 27 25 39 5 22 3 23 -21 18 -20 -5 -23 -4 -12 4 24 16 51 12 48 -7
-2 -10 5 -19 16 -21 11 -2 26 -11 35 -19 13 -14 10 -19 -27 -52 -31 -26 -42
-43 -42 -63 0 -21 5 -28 20 -29 11 -1 26 -2 33 -3 15 -3 38 14 32 23 -2 4 9 5
26 3 16 -2 32 -8 35 -13 3 -5 16 -9 29 -9 27 0 42 28 20 36 -33 13 -12 24 45
24 54 0 60 2 60 20 0 13 -10 24 -26 30 -33 13 -57 13 -49 0 3 -5 -1 -10 -10
-10 -9 0 -13 4 -10 10 3 5 2 10 -4 10 -5 0 -13 -4 -16 -10 -3 -5 -14 -10 -23
-9 -14 0 -14 2 2 8 18 7 16 9 -13 19 -18 7 -36 11 -40 9 -3 -1 -24 16 -46 37
-22 22 -32 34 -22 27 20 -15 24 1 4 18 -10 8 -17 7 -25 -1 -6 -6 -15 -8 -19
-4 -4 4 0 12 10 17 9 6 17 15 17 22 0 8 -4 6 -11 -3 -9 -13 -10 -13 -6 1 3 9
1 21 -6 28 -7 7 -17 1 -34 -24 -13 -19 -23 -41 -23 -51 0 -13 -3 -14 -14 -5
-13 11 -12 15 2 32 9 11 27 38 39 60 l21 40 16 -28 c8 -15 19 -38 25 -49 15
-34 79 -81 127 -94 53 -15 132 -7 148 16 15 20 46 8 46 -17 0 -10 5 -19 10
-19 6 0 10 -9 10 -20 0 -11 -7 -20 -15 -20 -9 0 -20 -11 -24 -23 -5 -13 -25
-32 -45 -41 -20 -9 -36 -21 -36 -26 0 -13 43 -13 56 0 12 12 47 2 38 -11 -6
-11 23 0 53 18 19 13 20 16 7 41 -18 35 -5 47 49 45 39 -2 36 1 -20 13 -13 2
-23 10 -23 16 0 9 3 9 12 0 14 -14 74 -16 83 -3 3 6 17 6 33 1 18 -5 43 -3 68
6 21 8 40 14 42 14 1 0 2 8 2 18 0 10 -3 13 -8 6 -21 -30 -115 -41 -165 -19
-10 4 -23 2 -32 -5 -12 -10 -16 -9 -21 3 -3 9 -12 13 -21 10 -10 -4 -14 -2
-10 4 4 6 1 14 -5 16 -8 3 -6 6 5 6 9 1 17 6 17 12 0 6 -7 9 -15 5 -9 -3 -15
0 -15 9 0 8 -4 15 -9 15 -4 0 -7 -12 -5 -27 2 -16 1 -20 -2 -9 -5 15 -8 16
-14 5 -5 -7 -11 -11 -13 -9 -2 3 6 23 19 44 l23 40 11 -25 c6 -14 34 -40 61
-59 85 -58 177 -40 252 49 l26 31 30 -39 c24 -30 28 -40 17 -44 -9 -4 -18 3
-23 18 l-8 24 -12 -25 c-10 -21 -10 -25 2 -20 9 3 12 0 8 -10 -3 -8 1 -14 11
-14 9 0 16 4 16 9 0 17 33 22 49 7 28 -24 77 -45 115 -49 40 -4 61 -17 28 -17
-12 0 -21 -6 -20 -12 2 -7 -3 -12 -10 -10 -7 1 -22 -2 -32 -8 -20 -11 -26 -3
-20 25 1 6 -8 0 -19 -12 -26 -27 -27 -45 -3 -36 14 5 15 3 5 -8 -21 -22 -16
-56 10 -63 33 -9 44 -7 27 5 -12 8 -9 10 12 6 15 -2 25 -1 23 3 -3 5 2 10 10
14 15 5 18 -1 18 -36 0 -10 4 -18 9 -18 5 0 23 -15 40 -32 17 -19 28 -25 25
-15 -4 9 -2 17 3 17 5 0 7 8 4 18 -3 9 2 6 10 -8 14 -22 21 -21 17 3 -1 5 4 7
11 4 7 -2 13 -14 12 -26 0 -11 3 -21 8 -21 4 0 8 5 8 10 0 6 7 10 15 10 8 0
15 4 15 10 0 5 -8 6 -17 3 -16 -6 -16 -5 -5 10 8 9 11 21 7 27 -8 13 -35 13
-35 0 0 -15 -16 -12 -34 6 -15 14 -17 13 -22 -14 -4 -21 -11 -29 -20 -25 -16
6 -19 33 -4 33 6 0 10 7 10 15 0 21 -18 19 -23 -2 -4 -17 -4 -17 -12 0 -8 19
10 47 31 47 8 0 14 -7 14 -15 0 -8 9 -15 20 -15 13 0 20 7 20 20 0 13 -7 20
-20 20 -11 0 -20 5 -20 10 0 14 27 13 36 -2 5 -8 10 -7 18 4 6 8 29 20 51 25
25 7 32 11 18 12 -13 1 -23 6 -23 12 0 6 -12 8 -32 5 -24 -4 -28 -4 -13 3 18
8 17 9 -10 13 -27 4 -26 5 9 7 35 1 106 34 114 53 7 17 20 7 15 -11 -4 -15 0
-19 21 -17 20 1 26 6 26 24 0 12 4 22 10 22 11 0 9 -28 -3 -47 -10 -16 -49
-17 -64 -2 -8 8 -13 8 -17 0 -4 -6 -2 -11 3 -11 6 0 11 -5 11 -11 0 -5 -4 -7
-10 -4 -11 7 -13 -6 -4 -29 6 -16 25 -23 23 -8 -8 46 31 51 72 9 17 -18 29
-23 31 -16 8 24 30 -2 23 -28 -5 -21 -3 -24 13 -19 16 6 19 3 14 -20 -3 -16
-1 -25 5 -21 6 4 9 -8 8 -30 -1 -19 -9 -39 -16 -44 -23 -14 -5 -10 28 6 24 12
30 21 26 38 -4 21 -3 20 11 -3 10 -17 15 -20 16 -9 0 23 59 12 82 -15 23 -28
22 -34 -4 -39 -13 -2 -4 -4 19 -3 37 1 44 5 52 28 6 16 6 38 1 55 l-9 28 0
-30 c2 -51 -1 -65 -10 -65 -6 0 -8 28 -5 65 3 53 1 65 -11 65 -8 0 -15 -4 -15
-8 0 -5 -6 -16 -13 -26 -11 -16 -15 -16 -50 -1 -35 14 -37 14 -37 -2 -1 -16
-2 -16 -12 2 -11 19 -11 19 -18 0 -6 -19 -8 -18 -19 4 -7 12 -11 23 -9 24 2 1
18 13 37 26 19 13 30 17 26 10 -4 -8 4 -1 17 15 18 21 31 28 46 24 12 -4 20
-2 16 3 -7 12 -41 11 -49 -1 -3 -5 -16 -10 -28 -10 -17 0 -19 2 -7 10 22 14 8
20 -26 11 -17 -5 -28 -14 -26 -22 3 -11 1 -12 -10 -1 -11 11 -10 15 2 23 13 9
12 12 -4 22 -36 23 -71 55 -66 61 3 3 19 -6 34 -19 16 -13 37 -27 47 -30 11
-4 17 -10 15 -14 -3 -4 9 -8 27 -8 18 0 64 -1 102 -3 127 -4 191 46 250 194 8
21 12 42 9 47 -13 21 16 7 38 -18 13 -16 36 -35 52 -43 39 -20 41 -32 12 -75
-15 -21 -31 -55 -38 -76 -6 -22 -14 -39 -18 -39 -4 0 -10 -10 -14 -22 -9 -37
-24 -8 -28 55 -2 41 1 57 10 57 7 0 15 -13 19 -30 3 -16 10 -30 15 -30 6 0 8
9 5 20 -3 11 -1 18 4 14 5 -3 9 2 9 10 0 9 -5 15 -12 14 -6 -2 -14 5 -16 16
-2 11 0 16 7 12 6 -4 11 0 11 9 0 9 4 14 9 11 5 -3 11 1 15 9 3 9 12 12 22 8
12 -4 15 -3 10 5 -11 18 -27 15 -54 -10 -14 -13 -22 -17 -18 -10 4 6 2 12 -4
12 -8 0 -9 11 -5 31 6 24 4 30 -6 24 -9 -6 -11 -3 -6 9 4 11 3 15 -4 10 -6 -3
-8 -17 -5 -30 4 -15 2 -24 -5 -24 -6 0 -9 -7 -5 -15 3 -8 0 -14 -6 -12 -6 1
-13 -4 -16 -12 -3 -8 0 -11 7 -7 16 10 14 -25 -3 -49 -22 -34 -29 -75 -11 -75
8 0 15 -6 15 -14 0 -12 40 -46 54 -46 3 0 7 10 9 23 4 18 4 18 6 -6 3 -63 61
-128 132 -147 48 -13 47 -34 -2 -37 -33 -3 -33 -2 -9 9 l25 11 -24 5 c-15 2
-29 -2 -37 -12 -12 -17 -29 -23 -20 -7 3 5 -5 20 -19 32 -13 13 -25 32 -25 41
0 9 -5 20 -10 23 -6 4 -10 3 -9 -2 7 -42 -14 -73 -24 -35 -4 15 -5 15 -6 0 0
-9 6 -23 14 -32 10 -10 12 -17 5 -21 -8 -5 -7 -11 1 -21 7 -8 7 -14 1 -14 -5
0 -13 -12 -17 -28 l-8 -27 -6 25 c-4 16 -15 26 -30 28 -15 2 -21 0 -17 -7 8
-12 -6 -15 -17 -5 -8 8 18 34 34 34 8 0 6 7 -5 19 -10 11 -13 21 -7 25 5 4 12
2 16 -4 9 -14 22 -13 22 3 0 6 4 29 8 51 6 31 5 38 -6 34 -8 -3 -17 -22 -20
-44 -3 -21 -7 -32 -8 -24 -1 10 -5 8 -16 -7 -8 -12 -12 -29 -8 -39 5 -13 3
-16 -10 -11 -11 4 -14 2 -10 -9 3 -7 1 -14 -5 -14 -6 0 -12 5 -14 11 -2 7 -9
5 -17 -5 -12 -14 -11 -16 5 -9 17 6 17 5 5 -10 -8 -10 -11 -20 -8 -24 4 -3 9
2 13 11 3 9 11 13 16 10 6 -4 5 -10 -3 -15 -7 -4 -10 -11 -6 -15 3 -4 14 -1
23 7 16 13 17 11 10 -15 -6 -26 -5 -27 9 -13 8 9 15 25 15 36 0 12 5 21 10 21
6 0 10 -16 10 -35 0 -24 -5 -35 -15 -35 -8 0 -15 -5 -15 -11 0 -6 -7 -9 -15
-5 -8 3 -15 1 -15 -4 0 -6 11 -10 25 -10 19 0 25 -5 23 -17 -2 -10 4 -19 13
-21 18 -3 29 24 29 74 0 17 9 43 20 57 11 14 20 30 20 36 0 19 22 12 27 -9 4
-16 9 -18 24 -9 12 6 19 6 19 0 0 -14 -36 -23 -60 -16 -15 5 -20 2 -20 -10 0
-12 5 -15 16 -11 8 3 24 1 35 -4 15 -8 19 -7 19 5 0 8 3 15 8 16 40 3 77 10
81 15 3 4 -9 5 -26 2 -18 -2 -33 -1 -33 4 0 4 35 7 78 7 60 -1 69 -3 42 -9
-25 -5 -28 -8 -12 -9 22 -1 22 -2 7 -18 -14 -13 -22 -15 -45 -6 -33 12 -45 7
-26 -12 23 -23 101 -24 93 -1 -3 8 2 21 12 30 19 17 46 22 37 7 -7 -11 28 -21
43 -11 9 5 8 10 -4 20 -8 7 -15 9 -15 4 0 -4 -5 -3 -12 4 -7 7 -33 12 -59 12
-63 0 -69 13 -12 28 24 7 52 19 60 28 13 13 17 13 24 2 7 -10 9 -9 9 4 0 9 11
34 25 54 22 33 25 34 25 13 0 -22 1 -22 13 -4 10 12 16 14 21 7 7 -12 -31 -72
-46 -72 -12 0 -10 14 5 29 10 11 9 13 -3 9 -9 -3 -15 -16 -15 -31 1 -23 -3
-27 -27 -27 -15 0 -28 -4 -28 -9 0 -5 -9 -7 -20 -4 -11 3 -20 1 -20 -5 0 -17
62 -24 79 -8 14 13 19 12 40 -5 25 -21 38 -19 25 3 -11 17 -13 48 -2 42 4 -3
8 -12 8 -20 0 -8 5 -12 10 -9 6 3 10 15 10 26 0 14 7 19 25 19 27 0 34 14 11
23 -9 4 -12 14 -9 26 3 12 8 19 12 17 9 -6 7 71 -3 81 -4 4 -5 -6 -2 -22 6
-26 5 -27 -3 -7 -6 12 -15 22 -21 22 -17 0 -11 26 13 52 13 14 21 30 19 37 -8
25 9 60 36 73 19 10 27 21 27 40 0 14 3 29 7 33 10 10 58 -3 58 -15 0 -14 -27
-12 -34 3 -2 6 -4 -4 -3 -23 2 -38 31 -60 51 -39 8 9 7 10 -6 6 -31 -11 -19
17 17 41 19 12 35 18 35 12 0 -5 4 -10 10 -10 5 0 9 11 8 25 -2 23 -18 37 -18
15 0 -5 -10 -10 -22 -10 -17 0 -19 3 -10 9 18 11 -8 22 -46 20 -27 -1 -27 -1
3 -8 29 -7 28 -8 -14 -12 -30 -3 -45 -1 -48 8 -6 15 -48 16 -78 3 -16 -7 -16
-9 -4 -9 10 -1 24 -18 33 -42 15 -37 15 -41 0 -56 -13 -14 -17 -14 -26 -2 -7
11 -11 11 -15 2 -7 -19 -26 -16 -19 3 9 24 -6 41 -16 18 -6 -13 -7 -10 -3 14
3 23 1 32 -9 32 -8 0 -13 7 -12 16 3 22 71 45 126 43 25 -1 52 0 60 4 8 3 24
8 35 10 15 3 13 5 -7 6 -16 0 -28 6 -28 12 0 6 7 8 16 5 9 -3 21 -6 28 -6 7 0
21 -7 32 -16 10 -8 13 -13 7 -9 -7 3 -13 1 -13 -5 0 -7 7 -9 16 -6 9 3 18 6
20 6 2 0 4 11 4 24 0 28 -24 78 -34 69 -7 -7 -36 27 -35 42 0 6 3 4 6 -3 3 -9
10 -7 24 9 17 20 19 20 25 4 12 -31 124 -5 124 28 0 7 -4 7 -12 -1 -7 -7 -19
-12 -27 -12 -11 0 -8 5 7 16 13 9 32 14 42 11 11 -3 27 1 37 9 17 13 17 14 1
8 -12 -4 -18 -1 -18 10 0 9 5 16 10 16 6 0 5 6 -2 14 -16 17 -23 11 -23 -17 0
-17 -6 -22 -27 -22 -15 -1 -30 -4 -34 -8 -4 -4 -17 -7 -29 -7 -11 0 -27 -6
-34 -12 -9 -8 -15 -9 -17 -3 -7 18 -83 5 -95 -16 -5 -10 -17 -19 -27 -19 -13
-1 -11 -4 8 -16 15 -9 17 -13 6 -10 -11 4 -23 0 -30 -10 -8 -10 -37 -18 -86
-23 l-75 -8 77 -2 c42 0 78 3 80 8 2 5 26 12 53 16 28 4 46 4 42 -1 -5 -5 -14
-9 -20 -10 -7 0 -20 -2 -29 -2 -10 -1 -18 -7 -18 -13 0 -8 12 -10 35 -6 19 3
35 2 35 -4 0 -8 -51 -15 -75 -9 -30 7 -161 8 -170 1 -5 -5 -34 -12 -64 -15
-29 -4 -59 -9 -65 -12 -6 -4 3 5 19 20 17 14 33 25 38 26 11 0 8 30 -4 30 -5
0 -7 -4 -4 -10 3 -5 -1 -10 -9 -10 -9 0 -16 -4 -16 -10 0 -5 -7 -10 -15 -10
-8 0 -15 -5 -15 -12 0 -6 -11 2 -25 18 -14 16 -23 35 -20 42 3 7 1 11 -4 8
-13 -8 -30 44 -27 81 2 18 -1 30 -6 27 -10 -6 -3 65 13 127 12 48 50 81 95 84
33 1 38 -2 51 -32 10 -25 11 -47 5 -83 -7 -40 -6 -52 5 -62 25 -20 125 -4 122
20 -4 27 4 55 21 69 11 10 19 29 19 43 -1 20 -2 21 -6 5 -10 -43 -20 -34 -17
17 1 29 0 42 -3 28 -5 -25 -5 -25 -22 9 -10 21 -33 42 -61 57 -30 16 -38 24
-24 24 11 0 26 -6 33 -12 10 -11 11 -9 5 5 -5 13 -16 17 -43 17 -20 -1 -76 3
-126 9 -57 7 -93 7 -99 1 -6 -6 -16 -10 -24 -10 -23 0 -142 -62 -142 -74 0 -6
-5 -4 -10 4 -8 13 -10 12 -10 -2 0 -10 -4 -18 -9 -18 -5 0 -17 -3 -27 -7 -12
-4 -15 -3 -10 5 5 8 0 12 -13 12 -12 0 -21 -7 -21 -15 0 -8 -5 -15 -11 -15 -5
0 -7 -4 -4 -10 3 -5 8 -25 10 -44 5 -35 -3 -40 -35 -22 -11 7 -11 4 2 -9 19
-21 53 -13 44 10 -3 8 0 15 6 15 9 0 9 3 0 12 -13 13 -16 48 -4 49 4 0 19 2
33 4 l25 3 -23 -46 c-13 -25 -23 -51 -23 -59 0 -7 -4 -13 -9 -13 -13 0 -4
-142 13 -190 16 -47 12 -94 -8 -87 -6 2 -12 13 -14 25 -2 12 -8 20 -13 17 -14
-9 -11 -19 11 -42 19 -22 19 -22 -6 -76 -13 -30 -31 -61 -39 -67 -20 -16 -19
-5 1 25 9 14 12 25 6 25 -6 0 -12 -3 -15 -7 -2 -5 -2 -3 -1 4 2 7 -1 15 -6 18
-17 10 -11 20 20 38 17 10 30 22 30 28 0 16 -15 10 -47 -20 -18 -16 -34 -27
-37 -24 -2 2 -17 -2 -33 -11 -15 -8 -22 -15 -15 -16 7 0 22 5 32 10 15 8 21 6
30 -9 13 -26 13 -52 -1 -28 -11 19 -39 23 -39 6 0 -6 -9 -8 -22 -4 -17 6 -20
4 -14 -10 3 -10 4 -26 0 -37 -4 -15 -9 -16 -19 -8 -9 8 -15 8 -20 0 -3 -5 1
-10 9 -10 9 0 16 -4 16 -10 0 -5 7 -7 15 -4 8 4 15 1 15 -5 0 -6 7 -8 15 -5 8
4 13 10 10 14 -3 5 -1 11 5 15 13 8 13 35 0 35 -5 0 -10 -7 -10 -16 0 -8 -4
-12 -10 -9 -17 11 -11 31 14 43 24 11 25 10 54 -50 2 -5 -4 -8 -12 -8 -10 0
-13 6 -10 18 5 13 4 14 -4 3 -6 -8 -8 -20 -5 -27 5 -13 -26 -34 -51 -34 -32 0
-66 44 -73 93 -5 44 -4 49 13 46 30 -3 110 32 145 64 10 10 19 14 20 10 1 -4
5 8 10 27 5 19 11 40 13 45 13 43 15 67 8 113 -6 34 -6 52 1 52 6 0 -3 11 -19
25 -16 14 -33 25 -38 25 -4 0 -6 6 -3 14 4 9 -2 14 -16 15 -12 0 -53 3 -90 5
-145 10 -250 -77 -283 -234 -8 -41 -16 -80 -16 -87 -1 -7 -5 -10 -8 -8 -4 3
-10 -11 -13 -30 -3 -19 -18 -51 -32 -72 -21 -30 -25 -33 -20 -13 4 14 11 29
16 34 5 6 9 22 9 37 0 14 9 38 21 53 11 14 18 32 16 39 -4 9 -6 9 -6 -1 -1 -9
-5 -10 -20 0 -24 15 -55 -6 -48 -34 3 -10 1 -15 -5 -12 -6 4 -7 -8 -2 -33 4
-21 10 -39 15 -41 4 -2 5 -10 2 -18 -4 -11 -8 -12 -13 -4 -5 8 -11 7 -23 -4
-8 -9 -25 -16 -35 -16 -11 0 -22 -4 -24 -8 -1 -4 -19 -16 -38 -26 -21 -10 -26
-16 -12 -13 12 3 22 1 22 -4 0 -5 -6 -9 -12 -9 -9 0 -8 -4 2 -10 8 -5 24 -9
35 -9 19 0 19 1 1 8 -17 6 -17 8 -3 14 8 3 18 1 20 -6 3 -8 10 -6 23 6 16 15
16 17 3 12 -10 -4 -20 -2 -24 4 -7 13 24 15 43 3 10 -7 8 -12 -5 -23 -58 -46
-94 -44 -132 9 -29 41 -19 60 37 67 66 9 112 27 112 42 0 8 -12 25 -26 38 -14
13 -24 29 -23 37 4 34 -3 56 -19 60 -16 5 -18 -2 -14 -68 3 -76 -2 -91 -18
-51 -9 22 -9 22 -11 -3 -1 -14 -1 -28 0 -32 0 -5 -11 -8 -26 -8 -23 0 -25 2
-13 11 12 8 11 9 -6 4 -19 -5 -22 0 -27 42 -6 47 10 134 27 150 5 4 6 -2 3
-15 -8 -33 24 -47 50 -22 15 14 23 16 32 7 8 -8 11 -7 11 3 0 11 3 11 12 2 14
-14 48 -16 48 -3 0 8 -35 22 -44 18 -1 -1 -11 4 -20 12 -15 12 -19 13 -26 1
-7 -12 -11 -11 -26 1 -16 13 -17 12 -11 -16 l7 -30 -16 28 c-14 26 -14 29 8
47 33 29 79 22 96 -12 7 -16 20 -28 28 -28 7 0 14 -7 14 -15 0 -21 16 -19 24
3 4 9 13 33 20 52 22 57 -15 139 -74 162 -49 20 -163 27 -197 13 -17 -7 -34
-11 -37 -8 -2 3 -15 -4 -27 -16 -13 -12 -27 -21 -32 -21 -14 0 -85 -80 -101
-114 -8 -17 -17 -66 -21 -108 -5 -54 -13 -84 -26 -99 -11 -12 -19 -27 -19 -33
0 -6 -11 -24 -24 -41 l-24 -30 -11 28 c-14 35 -14 47 -1 27 7 -11 10 -6 10 21
0 29 5 38 21 42 19 5 20 4 5 -12 -9 -10 -14 -25 -11 -34 4 -8 2 -18 -4 -22 -6
-3 -11 -11 -11 -16 0 -6 5 -7 11 -3 13 8 44 75 41 88 -4 15 9 46 17 41 12 -7
22 97 12 131 -4 16 -6 35 -3 42 2 7 -4 19 -14 26 -11 9 -15 19 -10 32 5 12 4
15 -2 9 -6 -5 -13 -39 -16 -75 l-6 -65 15 40 15 40 -5 -45 c-3 -28 -2 -40 4
-32 6 10 10 7 13 -12 3 -14 2 -26 -3 -26 -4 0 -10 -8 -12 -17 -2 -10 -3 -6 -1
10 2 15 -1 27 -6 27 -6 0 -10 -16 -10 -35 0 -19 -4 -35 -10 -35 -5 0 -10 -7
-10 -15 0 -7 -6 -18 -14 -22 -8 -4 -16 -17 -19 -28 -3 -11 -4 24 -2 79 3 82 7
101 23 117 15 13 20 28 17 56 -4 54 -13 70 -46 83 -16 7 -26 16 -23 21 3 5 -2
6 -10 3 -8 -3 -28 1 -44 10 -30 15 -64 16 -135 1 -27 -5 -35 -10 -25 -16 11
-7 11 -9 -1 -9 -8 0 -12 -3 -9 -6 4 -3 0 -21 -8 -40 -10 -24 -14 -66 -13 -132
1 -53 2 -114 2 -134 1 -36 -39 -138 -54 -138 -13 0 -32 77 -24 97 6 16 9 14
20 -11 l12 -28 6 47 c9 65 9 77 -3 70 -5 -3 -10 1 -10 9 0 9 5 16 10 16 6 0
10 12 10 26 0 14 -4 23 -10 19 -5 -3 -11 2 -12 12 -1 10 -5 -18 -8 -62 -6 -76
-6 -74 -9 50 -1 72 -5 138 -9 147 -4 10 -5 -51 -4 -135 2 -84 1 -149 -3 -145
-3 3 -7 74 -8 157 -1 144 0 152 21 171 12 12 27 18 32 15 6 -4 9 -2 8 3 -2 6
22 34 53 64 63 60 116 135 134 188 1 3 11 25 23 50 12 25 22 57 22 73 0 15 4
27 8 27 15 0 2 152 -17 189 -29 55 -83 106 -117 108 -54 4 -65 7 -60 20 3 7 1
13 -3 13 -5 0 -11 -7 -15 -15 -3 -8 -17 -15 -31 -15 -28 0 -78 -22 -109 -49
-18 -15 -19 -15 -13 2 4 9 2 17 -3 17 -6 0 -11 -4 -11 -10 -3 -19 -5 -25 -18
-48 -10 -20 -15 -21 -28 -10 -14 11 -15 10 -9 -9 5 -15 -1 -34 -18 -60 -38
-58 -86 -216 -99 -324 -6 -57 -15 -95 -21 -92 -5 4 -7 -1 -3 -10 6 -15 -20
-34 -31 -22 -3 3 0 5 6 5 7 0 12 5 12 11 0 6 -7 8 -17 5 -10 -4 -5 5 11 19 21
18 25 25 13 25 -10 0 -17 -4 -17 -9 0 -10 -78 -41 -105 -41 -12 0 -16 -3 -9
-10 6 -6 21 -6 42 -1 27 8 32 7 32 -8 0 -23 -10 -33 -24 -22 -6 4 -20 11 -31
13 -11 3 -29 9 -39 14 -12 5 -17 4 -13 -3 4 -6 -8 -9 -32 -8 -30 2 -37 -1 -28
-10 7 -7 24 -9 49 -5 52 10 92 2 78 -16 -9 -10 -3 -15 27 -23 41 -12 50 -7 55
28 1 14 9 26 15 29 19 6 15 -328 -4 -385 -16 -45 -41 -74 -31 -35 4 14 2 20
-4 16 -5 -4 -8 -17 -5 -30 2 -13 -2 -29 -9 -35 -8 -6 -11 -16 -7 -22 3 -6 1
-7 -5 -3 -7 4 -12 2 -12 -3 0 -6 -3 -10 -7 -10 -20 3 -27 -2 -13 -11 8 -5 11
-12 7 -16 -4 -4 -12 -3 -17 2 -12 12 -3 44 12 44 13 0 37 31 38 48 0 6 -4 12
-10 12 -5 0 -10 -8 -10 -17 0 -9 -3 -14 -6 -10 -3 3 -26 -3 -50 -13 -24 -11
-44 -17 -44 -13 0 3 -7 0 -15 -7 -8 -7 -15 -18 -15 -24 0 -6 5 -4 10 4 7 12
12 8 21 -18 7 -22 14 -30 19 -22 6 9 9 9 15 0 6 -9 9 -9 16 1 4 7 11 10 15 6
11 -10 0 -18 -39 -27 -31 -6 -38 -4 -57 17 -28 33 -54 94 -43 103 18 15 122
31 141 21 14 -8 22 -6 34 9 9 10 14 21 11 24 -6 5 21 10 39 7 13 -2 21 48 10
62 -5 6 -13 23 -17 36 -6 20 -4 23 9 18 13 -5 16 0 16 26 0 24 -3 28 -10 17
-7 -11 -9 1 -9 40 1 46 3 50 9 25 4 -16 8 -25 9 -18 0 6 4 18 7 27 4 10 -2 17
-19 21 -14 4 -28 14 -32 22 -9 24 4 29 20 7 13 -17 14 -17 15 -1 0 9 -3 18 -7
18 -5 1 -18 3 -29 4 -12 1 -32 10 -45 19 -13 9 -33 16 -44 17 -20 0 -20 0 0 9
16 7 13 9 -15 9 -19 0 -53 -3 -75 -8 -30 -5 -44 -4 -53 6 -7 7 -9 13 -5 13 4
0 2 5 -5 12 -9 9 -15 9 -24 0 -7 -7 -28 -12 -47 -12 -19 0 -31 -3 -27 -7 4 -4
24 -6 44 -5 20 1 44 -2 52 -8 12 -7 12 -10 1 -10 -7 0 -34 -14 -59 -31 -35
-24 -47 -28 -54 -17 -6 9 -7 6 -3 -9 7 -26 -7 -30 -25 -8 -16 20 -9 27 31 29
18 1 34 7 37 14 2 6 12 12 23 12 10 0 19 4 19 10 0 5 -7 7 -15 4 -8 -4 -26 -3
-39 0 -37 9 -31 54 9 65 20 6 24 9 10 10 -27 1 -85 -35 -85 -53 0 -8 -5 -16
-11 -18 -9 -3 -9 -10 0 -26 9 -17 9 -22 0 -22 -7 0 -2 -11 10 -24 22 -23 22
-24 3 -55 -10 -17 -22 -28 -25 -24 -11 10 -8 43 4 43 5 0 7 -6 3 -12 -5 -10
-4 -10 6 -1 15 14 3 36 -16 29 -8 -3 -11 0 -8 8 4 10 -2 12 -20 9 -14 -3 -26
-9 -26 -13 0 -4 -10 -11 -22 -15 -22 -6 -22 -7 7 -20 19 -8 34 -10 41 -4 8 7
14 2 18 -15 3 -13 9 -31 12 -40 5 -12 2 -15 -10 -10 -9 3 -16 15 -16 25 0 10
-7 19 -15 19 -8 0 -15 -7 -15 -15 0 -8 -3 -16 -7 -16 -5 -1 -17 -3 -28 -4 -11
-1 -30 -5 -41 -9 -31 -10 -39 28 -11 54 11 11 24 20 28 20 4 0 10 8 13 17 6
16 6 16 -12 0 -18 -16 -19 -16 -19 13 0 31 11 40 20 18 3 -8 6 -5 6 5 1 10 5
16 11 12 12 -8 50 16 50 32 0 17 -10 16 -24 -1 -6 -8 -20 -16 -31 -18 -16 -2
-19 2 -17 22 1 13 7 29 13 35 7 7 8 1 4 -18 -6 -22 -4 -26 9 -21 17 7 22 44 6
44 -5 0 -10 8 -10 18 1 15 3 14 18 -4 21 -25 46 -24 89 3 37 22 34 33 -9 33
-17 0 -27 4 -23 10 3 6 18 8 33 5 26 -5 26 -5 4 5 -13 5 -28 8 -32 5 -5 -3
-14 3 -20 12 -8 15 -9 13 -4 -9 4 -18 2 -28 -5 -28 -11 0 -16 19 -13 53 1 9
-3 17 -9 17 -5 0 -8 -4 -5 -9 4 -5 0 -12 -6 -14 -9 -4 -10 -8 -2 -14 15 -11
28 -67 14 -58 -6 4 -15 17 -20 29 -7 18 -9 16 -15 -16 -4 -21 -11 -38 -15 -38
-5 0 -12 -15 -15 -32 -4 -18 -10 -37 -13 -43 -4 -5 -7 -23 -9 -40 -1 -16 -15
-57 -32 -90 -32 -63 -37 -80 -21 -70 6 3 10 1 10 -4 0 -6 4 -11 8 -11 5 0 8
10 7 23 -1 12 0 27 2 32 5 14 88 13 88 -2 0 -20 15 -27 16 -7 1 10 1 22 0 26
0 4 6 5 14 2 8 -4 12 -10 9 -15 -3 -5 -1 -9 5 -9 5 0 11 6 14 13 3 8 8 9 15 2
6 -6 8 -15 4 -21 -7 -11 -111 -47 -142 -50 -8 0 -28 -4 -43 -9 -21 -5 -33 -3
-48 11 -12 11 -31 18 -43 17 -11 -1 -15 0 -8 3 6 3 12 10 12 16 0 6 17 31 38
57 21 25 42 54 45 65 4 11 13 16 22 12 8 -3 15 -1 15 4 0 6 -5 10 -12 10 -6 0
-3 9 7 20 10 11 15 23 12 27 -4 3 2 22 13 42 43 82 79 196 82 260 1 25 5 37 9
29 13 -21 17 -5 10 37 -4 22 -4 60 0 85 4 25 3 65 -1 90 -6 37 -8 40 -10 15
-2 -29 -2 -29 -11 8 -13 55 -33 90 -73 125 -19 16 -33 32 -31 34 4 4 -6 5 -80
9 -116 5 -212 -98 -275 -298 -12 -35 -19 -48 -19 -33 -1 18 -4 21 -13 12 -9
-9 -9 -17 0 -34 9 -18 8 -38 -2 -88 -13 -64 -14 -64 -15 -21 -1 55 -11 48 -16
-10 -1 -24 -6 -57 -9 -74 -6 -28 -5 -27 8 5 14 34 15 34 15 8 1 -15 -4 -30
-10 -34 -7 -4 -8 -20 -4 -42 6 -32 5 -34 -9 -23 -15 13 -23 2 -9 -12 10 -11
11 -68 1 -117 -10 -49 -13 -491 -4 -567 4 -34 3 -42 -3 -28 -7 15 -10 16 -12
5 -1 -8 -5 14 -9 50 l-7 65 -1 -64 c-2 -61 -3 -63 -20 -48 -11 10 -26 14 -40
10 -13 -3 -22 -1 -22 6 0 6 7 11 16 11 12 0 14 5 8 18 -5 9 -10 124 -12 256
-2 216 -1 238 13 232 9 -3 19 -6 21 -6 9 0 3 -139 -6 -145 -5 -3 -10 -42 -10
-86 0 -46 4 -79 10 -79 6 0 10 -32 10 -75 0 -41 4 -75 9 -75 9 0 24 117 24
190 0 96 -15 275 -24 278 -11 4 -11 120 1 147 7 17 9 14 11 -15 1 -19 2 -43 1
-52 -1 -10 2 -18 7 -18 5 0 7 -17 4 -39 -3 -21 0 -47 6 -57 8 -16 10 -11 11
27 0 25 3 74 6 108 5 40 3 61 -4 61 -6 0 -8 -15 -5 -39 3 -21 1 -41 -3 -44
-12 -7 -11 74 0 92 6 10 6 16 -2 19 -7 2 -12 11 -11 20 0 11 2 12 6 5 2 -7 12
-13 21 -13 15 0 15 2 2 11 -11 8 -12 12 -2 16 6 2 9 9 6 14 -3 6 0 42 7 82 7
40 12 76 11 80 -2 5 2 6 8 2 6 -4 10 12 10 42 0 46 10 76 24 74 17 -3 20 0 7
8 -11 7 -10 17 9 57 42 93 65 134 73 134 5 0 5 -6 1 -12 -6 -10 -4 -10 8 0 9
7 19 28 22 46 4 19 13 37 22 40 12 5 13 2 3 -17 -9 -16 -3 -14 21 10 22 23 30
38 25 52 -5 18 -4 18 19 8 13 -6 22 -15 20 -19 -13 -20 144 21 157 41 9 13 10
12 6 -6 -4 -19 -2 -21 13 -13 10 5 20 15 23 22 2 7 8 10 12 6 4 -4 -2 -20 -14
-36 -23 -32 -27 -52 -11 -52 6 0 9 3 9 8 -4 23 6 32 56 53 30 12 55 26 55 31
0 4 3 7 8 6 4 0 15 2 25 5 9 4 24 9 33 12 21 7 17 10 -21 19 -21 5 -26 4 -15
-3 12 -8 10 -12 -10 -19 -42 -15 -89 -22 -95 -13 -2 5 16 12 42 16 l48 7 -34
14 c-19 8 -39 12 -45 10 -6 -2 -3 -5 7 -5 9 -1 17 -6 17 -11 0 -7 -14 -9 -37
-5 -63 11 -68 14 -50 28 10 8 16 30 18 62 2 67 -1 85 -11 55 l-8 -25 -1 28
c-1 16 -5 26 -11 22 -14 -8 -13 28 1 42 8 8 8 13 0 17 -6 4 -11 2 -11 -3 0 -6
-5 -11 -11 -11 -6 0 -9 9 -6 20 3 13 0 20 -9 20 -18 0 -18 -19 0 -39 8 -9 15
-41 16 -76 3 -86 2 -91 -20 -92 -17 -2 -20 4 -20 38 0 28 -4 38 -12 33 -8 -5
-10 4 -6 34 5 36 4 41 -18 45 -22 4 -24 1 -24 -37 0 -30 3 -37 10 -26 7 11 10
2 10 -32 0 -27 4 -48 8 -48 11 0 52 -35 52 -44 0 -3 -36 -6 -80 -6 -64 0 -78
3 -74 14 3 8 -2 28 -11 46 -13 25 -14 35 -4 46 8 10 8 14 0 14 -17 0 -24 -46
-11 -72 l12 -23 -21 22 c-23 24 -27 48 -11 58 6 3 10 14 10 23 0 12 -3 13 -12
4 -6 -6 -13 -47 -14 -93 -2 -68 -1 -78 10 -64 9 13 15 15 20 6 9 -14 -20 -45
-34 -36 -6 4 -10 -10 -10 -34 0 -23 -4 -41 -10 -41 -5 0 -10 -16 -10 -35 0
-25 -4 -33 -13 -29 -16 6 -21 64 -6 64 6 0 6 8 -1 20 -16 30 28 210 62 250 9
9 21 33 27 53 13 38 47 75 59 63 4 -4 -1 -13 -11 -21 -22 -16 -13 -42 14 -40
36 3 45 22 21 48 -26 27 -28 42 -6 33 10 -4 13 -2 8 6 -5 7 0 9 14 6 12 -4 22
-2 22 4 0 12 42 -1 52 -16 4 -6 10 -7 14 -3 4 4 18 -5 31 -19 21 -23 25 -31
22 -50 0 -4 3 -10 8 -13 17 -12 35 -65 24 -69 -17 -6 -14 -79 4 -86 13 -4 13
-2 5 14 -5 10 -10 29 -9 42 1 19 3 17 12 -10 5 -18 23 -42 40 -54 28 -20 31
-20 63 -5 19 9 34 22 34 29 0 10 2 10 8 0 17 -26 4 203 -14 248 -24 63 -69
123 -107 144 -17 11 -40 28 -50 40 -10 12 -16 15 -12 9 7 -15 -9 -17 -33 -4
-38 20 -117 19 -207 -4z m-1160 -228 c28 -32 45 -35 45 -7 0 27 28 26 57 -2
23 -21 23 -21 38 -2 15 18 16 18 45 -16 28 -33 30 -33 44 -15 13 18 15 18 40
2 14 -10 33 -34 42 -55 14 -34 17 -35 28 -19 8 10 26 17 48 17 38 0 70 -26 88
-74 8 -22 14 -26 22 -18 15 15 65 16 73 1 4 -6 -2 -13 -14 -16 -36 -9 -24 -30
21 -36 47 -6 76 -33 85 -79 3 -15 11 -28 19 -28 38 0 60 -68 24 -77 -28 -7
-25 -22 8 -34 69 -26 93 -90 52 -141 -21 -27 -18 -38 12 -38 27 0 32 -24 14
-61 -20 -40 -20 -53 0 -45 28 11 13 -47 -16 -61 -16 -8 -25 -21 -25 -35 0 -19
-6 -24 -37 -26 -21 -2 -38 -7 -38 -13 0 -16 -21 -10 -51 15 -15 13 -34 26 -40
28 -7 2 -12 18 -12 36 0 25 -6 33 -29 43 -27 11 -46 47 -40 77 2 6 -3 12 -9
12 -19 0 -49 31 -49 50 0 9 -9 25 -20 35 -11 10 -20 30 -20 44 0 21 -8 29 -40
43 -34 14 -41 23 -52 62 -16 60 -28 59 -28 -3 0 -51 24 -94 58 -105 9 -4 28
-32 41 -64 13 -31 35 -68 48 -83 12 -14 23 -33 23 -43 0 -10 17 -34 37 -54
l37 -35 -22 -15 c-15 -10 -22 -24 -22 -48 0 -33 -28 -74 -51 -74 -7 0 -8 -11
-4 -29 4 -17 2 -32 -5 -36 -14 -9 -60 40 -60 65 0 21 -36 50 -62 50 -22 0 -23
-13 -3 -30 8 -7 15 -28 15 -46 0 -23 5 -34 14 -34 23 0 46 -40 40 -67 -4 -13
-2 -23 2 -23 5 0 10 -25 11 -54 3 -63 -12 -86 -56 -86 -18 0 -34 -8 -43 -21
-12 -18 -26 -22 -83 -25 -59 -3 -73 0 -92 17 -12 12 -27 18 -33 14 -22 -14
-57 5 -71 37 -7 18 -25 43 -39 55 -28 23 -50 82 -49 129 0 23 9 35 47 59 55
35 98 109 88 149 -11 44 -59 61 -166 61 -108 0 -155 -17 -166 -61 -13 -50 55
-150 115 -169 44 -14 17 -131 -43 -182 -14 -13 -26 -32 -26 -43 0 -25 -35 -43
-67 -35 -19 4 -29 1 -40 -14 -12 -18 -23 -20 -85 -17 -59 3 -75 7 -89 25 -9
11 -27 21 -39 21 -47 0 -60 17 -58 75 1 30 6 55 11 55 5 0 7 14 3 31 -5 24 0
35 21 57 15 15 28 37 29 50 2 13 10 32 18 41 21 23 20 31 -4 31 -22 0 -60 -37
-60 -58 0 -19 -49 -64 -61 -56 -6 3 -9 16 -7 29 2 15 -7 32 -25 49 -19 18 -27
35 -27 60 0 26 -5 36 -20 41 -29 9 -25 26 15 58 25 20 35 36 35 55 0 15 8 32
18 38 19 12 72 107 72 129 0 8 9 16 20 20 30 10 62 69 58 110 -4 41 -22 52
-26 15 -5 -43 -24 -69 -59 -82 -26 -10 -33 -17 -33 -39 0 -15 -5 -31 -10 -34
-6 -4 -18 -24 -27 -46 -10 -26 -23 -41 -39 -45 -19 -5 -24 -13 -24 -40 0 -29
-6 -38 -34 -55 -21 -12 -33 -26 -30 -34 7 -18 -13 -55 -31 -55 -8 0 -20 -9
-27 -20 -14 -21 -48 -28 -48 -9 0 7 -10 9 -25 7 -28 -6 -69 19 -47 29 16 6 -3
33 -24 33 -7 0 -21 12 -31 26 -16 25 -16 27 1 40 16 11 16 17 6 48 -14 43 -6
60 26 52 28 -7 32 9 9 34 -9 10 -20 31 -25 48 -10 39 14 75 66 97 38 16 44 30
14 38 -33 9 -27 56 9 70 22 8 31 19 35 43 8 42 35 64 85 71 44 6 54 21 21 30
-12 3 -19 11 -17 17 5 14 67 21 67 7 0 -21 18 -10 30 18 20 50 47 71 89 71 26
0 41 -5 45 -16 8 -20 26 -9 26 16 0 10 14 30 31 45 30 25 32 25 51 8 19 -17
20 -17 34 2 24 36 35 45 49 45 8 0 15 -7 15 -15 0 -20 8 -19 28 4 25 29 56 31
60 4 4 -29 14 -29 38 -2 29 33 53 39 137 36 72 -2 81 -5 102 -30z m2465 -602
c6 -19 9 -44 5 -55 -3 -11 -9 -32 -11 -47 -3 -16 -9 -32 -15 -37 -5 -6 -9 -17
-9 -26 0 -14 -67 -114 -125 -185 -15 -19 -15 -17 -10 35 8 68 25 130 37 130
12 0 10 -24 -3 -37 -8 -8 -7 -17 4 -33 11 -16 17 -18 23 -9 4 7 2 15 -4 17
-14 4 -16 32 -3 32 5 0 11 -8 14 -17 4 -17 4 -17 11 -1 5 11 0 24 -13 37 -22
22 -26 60 -11 96 7 19 9 18 19 -8 6 -16 11 -36 11 -46 0 -10 9 -21 21 -24 15
-4 19 -1 16 11 -2 9 -8 16 -14 15 -6 -1 -13 13 -15 32 -2 18 0 31 4 29 4 -3 8
-10 8 -15 0 -6 7 -17 15 -25 8 -9 15 -11 15 -6 0 6 3 18 7 28 4 12 3 15 -5 10
-17 -10 -15 3 3 20 8 9 15 28 15 43 0 38 -36 35 -59 -5 -9 -16 -17 -31 -18
-33 -2 -2 -5 -2 -8 1 -6 5 27 70 47 96 18 21 36 13 48 -23z m-1111 -22 c6 -21
11 -54 11 -74 0 -37 -29 -153 -50 -204 -7 -16 -12 -34 -11 -38 1 -5 -3 -6 -9
-2 -6 3 -10 -3 -10 -15 0 -12 -9 -34 -20 -50 -11 -15 -17 -30 -13 -33 9 -10
-19 -38 -32 -33 -8 3 -11 -2 -8 -14 3 -10 -2 -29 -11 -42 -16 -22 -16 -21 -10
32 3 30 10 75 15 100 6 25 14 71 20 104 14 89 39 180 52 188 9 6 8 8 -2 8 -9
0 -10 4 -3 13 5 6 13 23 17 37 8 27 33 60 46 60 4 0 13 -17 18 -37z m-491
-300 c14 -13 20 -23 14 -23 -6 0 -9 -6 -6 -14 3 -8 1 -24 -6 -35 -10 -20 -12
-20 -34 -6 -13 9 -26 25 -29 35 -4 16 -14 20 -46 20 -23 0 -41 -4 -41 -9 0 -5
-6 -11 -12 -14 -16 -5 24 1 57 9 40 10 29 -13 -12 -24 -36 -10 -36 -11 -8 -10
17 0 37 0 46 -1 20 -1 34 -50 20 -64 -7 -7 -11 -106 -11 -284 0 -175 -4 -273
-10 -273 -19 0 -10 -32 10 -37 16 -4 18 -9 10 -19 -9 -10 -17 -6 -41 19 -26
28 -31 30 -42 16 -9 -12 -19 -14 -42 -7 -16 4 -39 5 -50 1 -11 -4 -47 -8 -80
-9 -82 -4 -95 -6 -95 -16 0 -5 -4 -6 -10 -3 -18 11 -11 27 10 22 17 -4 20 0
21 36 2 34 3 36 6 12 6 -37 23 -58 23 -27 0 20 6 22 53 23 l52 2 -40 7 c-42 8
-40 10 12 16 21 2 33 -1 37 -11 3 -9 18 -15 38 -14 l33 1 -30 8 -30 8 37 1
c46 1 55 14 28 41 -11 11 -20 27 -20 35 0 22 -37 18 -43 -5 -4 -15 -14 -20
-38 -20 -26 0 -30 3 -21 12 22 22 12 28 -49 28 -33 0 -58 -4 -55 -9 3 -5 -1
-11 -9 -14 -10 -5 -16 4 -20 31 -3 20 -10 45 -16 55 -5 9 -6 17 -3 17 12 0 33
-34 34 -52 0 -10 4 -18 9 -18 13 0 25 83 17 115 -8 29 -26 34 -26 6 0 -30 -17
-34 -22 -6 -3 14 -2 25 2 25 12 0 7 35 -8 50 -14 13 -15 11 -8 -15 5 -22 4
-26 -4 -15 -6 10 -10 11 -10 3 0 -7 -4 -13 -10 -13 -5 0 -7 6 -4 14 4 11 0 13
-14 9 -17 -4 -20 -12 -18 -51 2 -26 8 -58 13 -72 6 -14 13 -32 16 -40 4 -12 6
-12 6 2 2 30 19 29 23 -3 3 -22 1 -29 -9 -25 -7 3 -13 1 -13 -4 0 -6 4 -10 9
-10 5 0 12 -10 16 -22 4 -13 8 -26 10 -30 1 -5 3 -17 4 -28 1 -13 6 -17 16
-14 8 4 15 2 15 -4 0 -10 -30 -25 -37 -18 -2 2 -5 15 -7 29 -1 14 -8 32 -14
40 -7 8 -21 40 -32 72 -11 32 -24 63 -29 69 -17 21 -35 96 -25 106 5 5 26 11
46 12 46 4 69 39 73 112 4 64 15 116 25 116 4 0 15 15 24 33 14 27 16 28 12 7
-13 -66 -24 -95 -33 -93 -6 1 -13 -9 -16 -22 -3 -20 -2 -23 9 -14 12 9 13 5 9
-22 -4 -30 -4 -31 5 -9 9 25 9 25 8 -5 0 -48 1 -57 12 -50 14 8 13 58 -1 72
-8 8 -9 20 -1 43 6 17 8 38 5 47 -4 11 -3 14 5 9 7 -4 12 -16 12 -26 0 -10 5
-22 10 -25 13 -8 13 -45 1 -45 -5 0 -11 6 -14 13 -2 6 -3 3 -1 -8 2 -11 4 -35
4 -52 0 -26 4 -33 20 -33 16 0 20 7 20 33 0 17 -5 48 -10 68 -7 24 -7 50 -1
75 l10 39 -1 -40 c-2 -72 1 -95 16 -95 20 0 29 -18 20 -38 -14 -32 -32 -107
-27 -114 2 -5 15 -8 29 -8 23 0 24 3 24 68 0 37 3 85 6 107 4 26 2 35 -4 27
-7 -10 -11 -5 -16 19 -5 24 -2 36 14 49 11 10 20 22 20 29 0 6 11 11 24 11 13
0 29 7 36 15 10 12 10 15 -4 15 -9 0 -16 5 -16 10 0 6 -7 10 -15 10 -8 0 -15
-4 -15 -10 0 -5 5 -10 12 -10 6 0 9 -2 7 -5 -3 -2 -15 -2 -27 2 -19 5 -20 8
-10 22 11 13 8 12 -15 -2 -16 -10 -36 -16 -45 -13 -10 4 -7 -2 7 -12 15 -12
21 -26 18 -38 -4 -17 -5 -17 -6 2 0 12 -9 25 -18 29 -22 8 -29 4 -25 -14 2 -8
-1 -10 -8 -6 -9 6 -10 -1 -5 -25 5 -24 4 -31 -5 -25 -13 8 -10 66 5 78 5 5 0
5 -12 2 -13 -3 -23 -2 -23 3 0 6 12 9 27 7 25 -3 26 -2 8 11 -15 11 -16 17 -7
26 7 7 12 22 12 34 0 35 17 38 45 8 23 -25 24 -28 7 -40 -9 -7 -24 -13 -32
-13 -12 0 -12 2 2 10 17 10 14 39 -4 39 -6 0 -8 -6 -5 -14 3 -7 1 -18 -5 -24
-18 -18 25 -34 48 -17 11 7 36 13 57 12 23 -1 47 7 64 19 16 12 45 24 66 28
29 5 37 11 37 29 1 21 1 22 12 2 6 -11 22 -30 36 -42z m-1713 -368 c42 -89
114 -178 183 -229 l51 -37 -20 -57 c-25 -71 -32 -78 -60 -58 -13 9 -31 16 -40
16 -10 0 -36 21 -59 48 -90 104 -184 367 -137 385 35 15 47 5 82 -68z m435
-47 c0 -2 -7 -28 -16 -58 -24 -88 -29 -288 -10 -399 9 -52 21 -100 27 -107 5
-6 43 -15 84 -19 l75 -7 0 -72 c0 -140 -33 -251 -78 -263 -37 -9 -56 9 -62 57
-6 51 -25 63 -35 23 -20 -80 -71 -132 -116 -118 -26 9 -49 55 -56 116 -3 27
-9 49 -13 49 -11 0 -20 -27 -20 -55 0 -33 -16 -39 -40 -15 -46 46 -17 271 64
500 79 221 140 357 164 363 23 6 32 7 32 5z m274 -4 c10 -4 16 -18 16 -40 0
-27 4 -34 20 -34 13 0 20 -7 20 -20 0 -11 5 -20 10 -20 6 0 10 -9 10 -21 0
-18 5 -20 43 -18 23 1 72 -2 110 -6 l67 -7 0 -84 c0 -72 -2 -83 -16 -77 -9 3
-20 0 -25 -8 -7 -11 -9 -11 -9 4 0 15 -11 17 -80 17 -63 0 -80 -3 -80 -14 0
-23 21 -31 80 -31 39 0 54 -4 52 -12 -1 -9 11 -13 35 -14 21 0 47 -4 58 -9 13
-6 4 -7 -30 -4 l-50 4 45 -13 c36 -10 41 -14 26 -20 -11 -4 -24 -3 -30 3 -14
14 -26 13 -26 -2 0 -9 -17 -13 -48 -14 -36 -1 -42 1 -24 7 37 14 25 20 -28 13
-32 -4 -55 -2 -64 5 -11 9 -22 8 -49 -5 -21 -10 -43 -14 -54 -9 -17 7 -17 7 1
14 11 4 15 10 10 14 -6 3 -16 2 -24 -4 -8 -5 -24 -8 -35 -8 l-20 0 20 10 c15
7 9 8 -20 4 -26 -4 -35 -3 -26 4 7 5 11 13 7 19 -3 5 0 9 7 9 24 -1 77 16 77
24 0 5 9 9 20 9 11 0 20 5 20 10 0 11 -59 14 -85 4 -13 -6 -14 -9 -3 -16 9 -7
7 -8 -8 -3 -12 3 -34 -1 -50 -10 -33 -17 -54 -19 -54 -6 0 5 6 11 13 14 9 4 9
7 0 17 -10 11 -14 10 -19 -3 -3 -9 -11 -17 -16 -17 -6 0 -7 7 -4 16 4 11 2 15
-6 11 -10 -3 -12 7 -9 39 1 24 6 44 10 44 4 0 13 11 19 24 8 18 7 34 -4 66
-10 30 -12 46 -4 54 7 7 10 4 11 -9 1 -12 4 -8 8 10 7 28 7 28 15 -17 7 -47
26 -67 26 -28 0 11 -4 20 -8 20 -4 0 -8 9 -9 20 -1 11 2 20 8 20 5 0 10 -10
10 -22 1 -20 2 -21 6 -4 3 12 -2 25 -13 33 -17 13 -17 14 9 8 17 -5 27 -3 27
4 0 6 -8 11 -17 11 -14 0 -15 2 -4 13 10 10 14 8 22 -6 7 -12 17 -16 31 -11
14 4 18 2 14 -5 -4 -6 -15 -11 -24 -11 -15 -1 -15 -2 1 -11 14 -8 16 -18 11
-45 -4 -22 -2 -34 5 -34 6 0 11 15 11 34 0 19 5 38 11 42 6 3 10 -1 9 -12 -4
-37 0 -64 10 -64 6 0 10 28 10 65 0 51 -3 65 -15 65 -8 0 -15 7 -15 15 0 15
26 20 54 9z m1323 -43 c1 -16 16 -71 34 -123 21 -61 33 -117 35 -163 1 -38 1
-56 -2 -40 -7 51 -27 105 -35 99 -5 -3 -9 4 -9 15 0 12 -7 21 -15 21 -10 0
-15 -10 -15 -27 0 -23 2 -25 11 -13 8 11 9 2 5 -35 -3 -33 -2 -43 4 -30 7 17
9 14 9 -13 1 -22 5 -32 14 -29 16 5 36 -22 37 -52 0 -14 -10 -54 -22 -89 l-21
-64 -14 52 c-7 28 -11 55 -8 59 2 5 0 23 -6 42 -13 42 -24 419 -12 419 4 0 9
-13 10 -29z m-1012 -62 c19 -9 18 -9 -2 -5 -13 2 -23 0 -23 -5 0 -5 16 -9 36
-9 28 0 43 -8 72 -38 51 -53 67 -102 52 -156 -16 -57 -39 -83 -80 -90 l-35 -7
40 20 c32 16 37 21 23 26 -10 4 -18 13 -18 21 0 10 -6 11 -30 3 -16 -6 -30
-15 -30 -20 0 -5 -4 -9 -10 -9 -15 0 -12 26 5 40 17 14 20 67 4 72 -7 2 -5 18
5 48 15 42 14 46 -2 59 -15 12 -12 13 23 7 27 -4 35 -2 25 4 -8 5 -33 10 -55
10 -42 0 -90 19 -50 20 17 0 17 2 5 10 -12 8 -12 10 5 9 11 0 29 -5 40 -10z
m244 -356 c61 -205 74 -313 47 -378 -18 -43 -56 -50 -56 -11 0 13 -3 31 -6 40
-11 29 -24 16 -24 -24 0 -80 -42 -135 -92 -122 -27 7 -66 57 -79 103 -15 47
-34 46 -34 -3 0 -68 -58 -91 -97 -38 -23 32 -48 161 -48 250 l0 67 62 13 c113
22 214 90 259 174 13 25 27 42 31 38 3 -4 20 -53 37 -109z m-1278 96 c14 -7
18 -16 14 -30 -9 -27 13 -24 37 6 25 32 68 33 104 2 l27 -24 -18 -65 -17 -66
-55 -6 c-92 -11 -148 -48 -178 -119 -22 -53 -19 -75 15 -109 29 -29 33 -30
108 -27 l77 4 9 -49 c10 -56 2 -66 -54 -66 -113 0 -277 238 -268 390 3 48 6
55 25 58 17 3 24 -3 29 -23 9 -37 29 -25 32 21 3 50 20 82 52 99 31 17 36 18
61 4z m1572 -10 c26 -20 51 -84 45 -116 -5 -30 20 -24 31 7 9 28 13 30 32 20
20 -11 21 -18 17 -86 -7 -101 -58 -205 -143 -291 -67 -67 -114 -86 -162 -64
-23 10 -24 15 -18 54 4 23 9 45 11 49 3 4 36 4 74 1 55 -5 74 -2 95 11 85 56
31 197 -89 231 -28 8 -64 15 -80 17 -26 3 -30 9 -48 68 l-20 64 27 23 c35 31
78 30 103 -2 22 -28 48 -34 38 -9 -16 42 44 58 87 23z m-745 -279 c2 -36 10
-94 17 -130 8 -36 10 -69 6 -73 -13 -13 -112 -19 -161 -10 -36 7 -45 13 -43
29 2 10 7 48 13 84 5 36 12 86 15 112 l6 47 47 4 c99 8 97 10 100 -63z"/>
<path d="M5475 3208 c-22 -6 -43 -15 -46 -21 -4 -5 -17 -6 -30 -3 -13 3 -18 3
-11 0 22 -10 -7 -34 -41 -34 -17 0 -27 -3 -23 -7 11 -11 229 -4 236 8 4 6 24
9 45 7 31 -2 39 -7 41 -25 5 -28 -12 -31 -19 -3 -3 14 -11 18 -27 15 -31 -6
-38 -15 -12 -15 17 0 20 -5 16 -25 -3 -20 0 -25 16 -25 11 0 23 7 27 16 3 8
12 13 19 10 9 -3 8 5 -5 27 -16 29 -23 33 -72 37 -33 3 -49 8 -41 13 7 5 27 6
45 2 l32 -6 -26 14 c-14 8 -41 12 -60 10 -26 -3 -30 -2 -19 6 18 13 8 12 -45
-1z"/>
<path d="M3520 3001 c0 -5 -30 -13 -67 -16 -38 -4 -90 -16 -118 -26 -50 -19
-168 -88 -151 -89 5 0 3 -6 -3 -13 -8 -11 -6 -18 9 -32 19 -17 28 -10 13 11
-5 5 0 0 11 -12 26 -31 54 -118 62 -192 7 -61 -8 -203 -26 -264 -10 -33 5 -49
76 -77 63 -24 123 -32 234 -31 151 1 196 24 204 105 7 68 26 155 34 155 4 0 8
11 8 25 1 14 5 33 8 42 6 15 8 15 17 3 8 -11 9 -8 5 12 -7 29 31 121 46 112 4
-3 5 1 2 9 -3 8 0 18 6 22 8 5 6 13 -7 27 -10 11 -17 22 -15 24 4 7 -25 57
-50 85 -21 24 -112 77 -148 87 -8 2 -43 8 -77 14 -35 6 -60 14 -57 19 3 5 0 9
-5 9 -6 0 -11 -4 -11 -9z m124 -182 c14 -11 24 -24 21 -29 -3 -4 2 -13 10 -20
8 -7 15 -24 14 -39 -1 -25 -1 -25 -7 -3 -4 13 -11 23 -17 22 -5 -1 -13 9 -16
22 -4 18 -7 13 -10 -19 -3 -24 -1 -43 3 -43 5 0 8 8 8 17 0 14 3 14 12 5 16
-16 -5 -32 -39 -32 -18 0 -23 -6 -23 -25 0 -22 4 -25 35 -25 25 0 35 -4 35
-16 0 -19 22 -14 28 7 3 11 2 11 -6 1 -7 -11 -10 -10 -16 3 -12 33 -7 61 13
62 15 1 20 -8 25 -50 8 -72 8 -119 -2 -113 -5 3 -8 -17 -8 -43 0 -28 -7 -57
-17 -71 -13 -19 -17 -21 -17 -7 0 9 4 17 8 17 13 0 12 101 -1 138 -9 27 -16
32 -44 32 -28 0 -33 -4 -33 -24 0 -20 6 -24 40 -30 28 -4 40 -11 40 -23 0 -9
-3 -14 -6 -10 -7 7 -54 -38 -54 -52 0 -5 -13 -7 -30 -5 -16 3 -30 1 -30 -4 0
-5 -17 -12 -37 -16 -29 -4 -41 -2 -52 12 -12 15 -12 15 -6 -6 12 -42 52 -75
92 -76 28 -1 37 3 35 13 -3 12 0 12 12 2 21 -17 36 -5 35 27 0 15 -3 21 -6 13
-5 -11 -7 -11 -14 0 -7 11 -9 11 -9 -2 0 -8 5 -20 12 -27 8 -8 8 -12 1 -12
-12 0 -23 23 -23 46 0 8 7 14 15 14 8 0 15 4 15 8 0 4 9 8 20 8 15 0 19 -5 14
-16 -4 -8 -7 -26 -8 -40 -1 -29 -36 -50 -83 -50 -67 0 -110 39 -123 112 -4 21
-4 35 0 33 10 -6 20 20 20 51 0 33 -18 30 -23 -3 -2 -16 -3 -5 -1 22 7 99 11
127 20 134 5 3 18 23 28 43 23 46 51 73 61 59 3 -6 0 -11 -7 -11 -15 0 -58
-71 -58 -95 0 -10 -5 -14 -12 -10 -7 4 -5 0 6 -9 10 -8 16 -22 13 -31 -4 -8
-2 -25 3 -37 8 -22 9 -22 9 4 2 56 26 84 71 80 3 0 7 11 8 25 2 21 0 23 -13
13 -11 -10 -18 -9 -30 3 -19 20 -19 33 1 41 24 9 28 7 14 -9 -16 -19 -6 -32
13 -17 17 15 39 0 31 -21 -5 -13 -2 -16 11 -11 13 5 16 15 11 43 -3 20 -7 42
-8 49 -2 14 -14 16 -23 2 -3 -5 -13 -6 -21 -3 -13 5 -13 7 -2 14 21 14 44 10
72 -12z"/>
<path d="M528 2615 c-5 -9 -3 -86 4 -187 3 -33 6 -36 26 -31 12 3 22 1 22 -4
0 -5 11 -15 23 -22 13 -7 25 -19 26 -27 1 -8 2 -23 3 -34 2 -15 10 -20 33 -20
30 0 31 2 34 46 1 28 -2 43 -8 40 -5 -4 -12 3 -16 14 -4 11 -11 18 -16 14 -6
-3 -8 6 -4 23 5 25 4 26 -4 6 -8 -18 -18 -23 -51 -23 -34 0 -40 3 -41 23 -3
45 3 102 13 114 6 8 4 21 -6 40 -13 24 -15 25 -17 8 -1 -16 -2 -16 -8 5 -4 14
-9 20 -13 15z"/>
<path d="M4390 2550 c0 -6 -4 -9 -9 -6 -5 4 -7 -13 -5 -36 l4 -43 -14 30 c-12
23 -15 26 -15 10 0 -18 40 -75 53 -75 3 0 14 -7 23 -15 10 -8 20 -15 23 -14 3
0 18 -4 33 -10 16 -6 26 -7 23 -2 -3 5 12 11 33 15 22 3 46 9 55 12 9 3 16 1
16 -5 0 -6 -11 -11 -24 -11 -14 0 -28 -5 -32 -12 -4 -7 -3 -8 4 -4 8 5 12 -1
12 -17 0 -20 -4 -24 -20 -20 -11 3 -20 0 -20 -6 0 -6 7 -11 15 -11 17 0 20
-17 4 -22 -6 -2 -13 -21 -14 -41 -3 -32 -1 -37 14 -32 16 5 18 0 14 -45 -3
-43 -1 -49 13 -43 14 5 14 3 -2 -15 -9 -12 -20 -19 -24 -17 -7 4 -5 -43 2 -51
3 -3 9 8 13 25 4 17 11 31 16 31 12 0 12 -17 -1 -25 -5 -3 -10 -14 -10 -23 1
-24 39 27 40 51 0 13 5 17 19 12 17 -5 51 16 51 33 0 4 18 15 41 25 28 12 45
15 57 8 14 -9 11 -10 -15 -11 -17 0 -34 -4 -38 -10 -8 -13 53 -4 72 11 13 11
12 14 -8 21 -13 5 -35 6 -51 3 -17 -4 -28 -2 -28 4 0 6 6 10 12 9 7 -2 14 7
16 20 2 12 -1 22 -7 22 -6 0 -11 -4 -11 -9 0 -5 -16 -15 -35 -22 -20 -8 -34
-18 -31 -25 6 -15 -24 -28 -36 -16 -5 5 -9 18 -9 28 0 42 11 147 16 152 11 11
19 -10 17 -43 -1 -18 2 -36 8 -40 6 -4 10 10 10 38 0 36 -4 46 -22 55 -20 10
-17 11 21 9 28 -1 45 3 48 11 3 6 -2 12 -11 12 -9 0 -16 -5 -16 -10 0 -6 -14
-4 -35 4 -34 15 -56 15 -122 1 -25 -6 -33 -3 -42 14 -12 22 -65 54 -74 45 -3
-3 -4 3 -3 13 0 10 6 21 11 25 6 5 5 8 -4 8 -7 0 -11 6 -8 15 4 8 2 17 -3 20
-6 4 -10 1 -10 -5z"/>
<path d="M4425 2382 c6 -4 12 -19 13 -35 2 -27 2 -27 -31 -14 -48 21 -95 11
-112 -23 -8 -16 -20 -30 -27 -32 -9 -3 -8 -9 5 -22 9 -10 15 -21 12 -26 -3 -5
10 -21 30 -36 41 -31 84 -28 122 8 17 15 23 18 23 7 1 -11 3 -11 13 2 7 9 19
18 27 21 10 3 15 19 16 50 1 37 -2 47 -17 51 -11 3 -19 10 -19 17 0 6 4 8 10
5 6 -3 7 1 4 10 -5 11 -10 13 -19 5 -9 -8 -14 -6 -19 5 -3 8 -13 15 -23 15
-11 0 -14 -3 -8 -8z"/>
<path d="M4890 2241 c0 -23 -22 -41 -28 -23 -2 7 -18 11 -35 11 -24 -1 -26 -3
-9 -6 12 -2 22 -9 22 -14 0 -5 12 -9 28 -8 15 1 34 -1 43 -5 10 -4 23 0 34 10
16 17 17 17 13 -2 -2 -11 -13 -20 -26 -22 -12 -2 -20 -7 -17 -12 7 -11 36 -1
48 14 5 7 16 1 30 -17 17 -20 29 -26 43 -21 18 7 18 7 1 -13 -14 -16 -16 -30
-11 -61 4 -23 10 -39 15 -36 5 3 9 -1 9 -10 0 -8 -4 -16 -10 -18 -5 -1 -7 -14
-3 -27 5 -20 8 -16 20 28 7 29 11 57 7 62 -3 5 -1 9 5 9 5 0 13 -9 16 -20 3
-11 11 -20 17 -20 5 0 8 6 5 14 -6 15 22 46 41 46 7 0 12 4 12 9 0 5 9 13 21
16 11 4 18 9 15 13 -7 6 -57 -18 -68 -33 -4 -5 -8 -6 -8 -1 0 5 -7 3 -15 -4
-10 -9 -15 -9 -15 -1 0 6 -7 11 -15 11 -8 0 -15 7 -15 15 0 8 6 15 12 15 7 0
-3 8 -22 19 -25 13 -34 24 -32 39 4 24 -31 45 -90 56 -34 6 -38 5 -38 -13z"/>
<path d="M5955 2161 c-3 -16 -8 -49 -10 -74 -4 -38 -2 -46 15 -50 18 -5 19 -8
9 -31 -14 -29 -30 -38 -50 -25 -9 5 -10 9 -2 9 14 0 -9 51 -32 70 -19 16 -40
3 -25 -15 7 -8 8 -20 4 -27 -12 -19 -13 -37 -4 -43 5 -3 15 5 21 17 l12 23 10
-30 c11 -39 16 -85 7 -80 -4 2 -7 -10 -8 -27 0 -18 2 -28 6 -22 21 30 65 53
93 47 22 -4 29 -2 29 11 0 19 -16 21 -23 4 -4 -10 -8 -9 -16 2 -14 20 -9 33
17 46 12 6 19 14 15 17 -3 4 1 7 10 7 10 0 17 -4 17 -10 0 -15 33 -12 57 5 12
8 30 14 40 13 10 0 34 0 53 1 32 3 33 4 10 10 -14 4 -30 4 -36 -1 -14 -10 -24
0 -24 24 0 10 -4 18 -9 18 -21 0 -41 -13 -41 -26 0 -11 -5 -11 -25 -2 -19 9
-28 9 -37 0 -9 -9 -6 -12 15 -12 15 0 27 -4 27 -9 0 -6 -12 -6 -31 -1 -16 5
-36 8 -42 6 -7 -1 -9 -1 -4 1 12 8 8 23 -7 23 -23 0 -27 14 -17 64 14 74 -8
137 -24 67z"/>
<path d="M4270 1440 c-13 -8 -13 -10 2 -10 9 0 20 -5 24 -12 10 -16 -27 -40
-52 -34 -11 3 -29 -1 -40 -9 -15 -11 -16 -15 -4 -16 8 -1 19 -1 23 0 5 1 5 -4
1 -10 -5 -8 -2 -10 8 -6 9 3 21 0 27 -6 10 -9 12 -9 9 3 -2 9 10 17 34 24 55
14 88 -11 88 -65 0 -23 -4 -38 -9 -34 -6 3 -15 -5 -21 -17 -10 -21 -10 -21 3
-6 8 10 17 15 20 11 4 -3 9 2 13 11 5 13 9 14 20 5 11 -9 14 -9 14 0 0 8 11
11 28 9 19 -2 27 -9 27 -23 0 -12 -6 -19 -14 -17 -10 2 -12 -4 -7 -22 5 -20 3
-24 -9 -20 -8 4 -15 1 -15 -4 0 -6 10 -14 22 -18 l21 -6 -21 -12 c-25 -13 -28
-26 -10 -37 21 -14 27 -11 23 11 -2 11 1 20 6 20 6 0 9 8 8 18 -1 9 -1 26 0
37 1 17 3 18 11 5 7 -11 10 -6 10 20 -1 44 -18 67 -48 65 -13 -1 -26 4 -29 12
-7 18 -21 16 -26 -4 -3 -12 -5 -8 -6 9 -1 20 4 28 22 31 l22 4 -22 2 c-19 1
-23 7 -23 35 0 19 -7 42 -16 50 -17 18 -90 21 -114 6z"/>
</g>
</svg>
